<svg width="112" height="112" viewBox="0 0 112 112" fill="none" xmlns="http://www.w3.org/2000/svg">
<path d="M58.5522 87.5857C58.5375 88.0452 41.05 86.4669 30.4195 65.735C30.4195 65.735 25.6699 56.8572 25.2061 42.8167C24.7423 28.7763 26.081 28.6387 26.081 28.6387C26.081 28.6387 26.6796 27.3285 31.1616 26.0014C33.4868 25.313 38.7174 23.5717 43.3778 20.8853C47.7006 18.3936 51.4466 15.0236 54.0663 12.5427C59.5103 7.38705 58.5522 7.59767 58.5522 7.59767C58.5522 7.59767 59.6079 5.48588 55.6018 5.3429C51.5956 5.19993 50.1533 9.73821 48.961 10.8313C47.7686 11.9243 39.5976 19.413 31.9716 21.3204C24.3456 23.2279 24.2041 22.2992 22.9933 23.6721C21.7825 25.0451 19.3586 27.0434 20.5854 38.569C21.8122 50.0946 23.6901 70.6719 38.754 81.7149C53.818 92.758 58.5522 87.5857 58.5522 87.5857Z" fill="#0E0E0E"/>
<path d="M71.3907 15.7863C75.0376 16.7209 78.9284 16.3388 82.5324 15.2508C82.6535 15.2142 82.7875 15.166 82.8418 15.0518C82.8826 14.9659 82.8666 14.8647 82.8446 14.7722C82.5336 13.4621 81.2404 12.5819 79.9243 12.2974C78.6083 12.0129 77.2436 12.196 75.8999 12.2804C73.7416 12.4159 71.5669 12.2891 69.4381 11.9091C68.1931 11.6869 64.8122 10.0525 63.7843 10.7123C64.845 13.3286 68.84 15.1326 71.3907 15.7863Z" fill="#0E0E0E"/>
<path opacity="0.4" d="M25.055 39.5883L20.3915 37.0825L21.261 47.5727C21.9851 47.7813 25.3422 49.8856 26.0294 50.0871L25.055 39.5883Z" fill="white"/>
<path opacity="0.4" d="M27.7333 57.8841L22.9129 55.3423L27.3038 68.0478C28.0279 68.2563 33.6885 71.2484 33.6885 71.2484L27.7333 57.8841Z" fill="white"/>
<path opacity="0.4" d="M82.4352 13.863C82.4352 13.863 75.5624 15.7446 70.3496 13.863C65.1368 11.9814 61.7551 9.55078 61.7551 9.55078C61.7551 9.55078 73.5685 21.0348 82.4352 13.863Z" fill="white"/>
<path opacity="0.4" d="M56.2735 9.90112C56.2735 9.90112 37.2812 21.8815 30.6439 22.0247C25.9198 22.1266 26.5672 28.102 26.5672 28.102C26.5672 28.102 27.6202 26.6491 42.0271 22.2026C45.0921 21.2566 53.2723 14.2548 56.2735 9.90112Z" fill="white"/>
<path d="M84.898 15.4133C84.8133 15.3519 84.7277 15.2966 84.6418 15.2441C84.3272 14.7979 82.6454 12.6121 79.3136 11.7092L79.2573 11.694L79.199 11.6902C79.1469 11.6868 77.8919 11.6104 75.251 11.884C72.1306 12.2073 67.7848 12.0527 61.8224 7.9551L61.8157 7.96499C61.1719 7.2953 60.4875 6.91819 59.7676 6.84179C59.1825 6.35527 56.7285 4.44064 54.7226 4.77598C53.0416 5.05744 51.8615 6.52334 50.6121 8.07523C50.1661 8.62926 49.7049 9.20211 49.1979 9.75692C47.0878 12.0658 36.6758 21.0182 24.2801 22.6492C24.0761 22.6694 22.9434 22.8327 21.8953 24.0176C20.4079 25.6994 19.7795 28.5554 20.0277 32.5064C20.0776 33.3021 20.1072 34.3246 20.1414 35.5085C20.2808 40.3258 20.514 48.3883 22.661 56.7927C25.2588 66.962 30.0028 75.0695 36.7586 80.8877C36.9949 81.0938 42.6335 85.9615 50.3784 88.3455C50.5746 88.4131 52.4009 89.0177 55.0171 89.0176C56.3923 89.0175 57.9863 88.8504 59.6755 88.3504L59.6712 88.3357C66.3228 87.5064 74.3612 78.2772 74.7018 77.8828L74.7227 77.8572C81.0621 69.5726 83.905 61.195 85.1734 55.6258C86.5162 49.7307 86.4325 45.7495 86.4221 45.398L87.1422 23.3252C87.3709 19.3207 86.6158 16.6588 84.898 15.4133ZM75.3709 13.0422C77.5995 12.8114 78.8073 12.8393 79.0692 12.8496C80.5983 13.275 81.7337 14.0137 82.5004 14.6644C81.5762 14.6634 80.8786 14.9292 80.8301 14.9483C78.5173 15.8335 74.7748 15.8384 71.2954 14.9606C67.785 14.075 64.9973 12.4233 63.4868 10.3642C69.3713 13.663 73.6416 13.2214 75.3709 13.0422ZM50.753 87.243L50.7309 87.2357C43.2258 84.9281 37.58 80.059 37.5212 80.0078C22.2121 66.8232 21.5767 44.8555 21.3054 35.4749C21.2708 34.2803 21.241 33.2488 21.1898 32.4334C20.9159 28.0731 21.8288 25.9501 22.6429 24.9368C23.4769 23.8989 24.3512 23.8116 24.3803 23.8089L24.4213 23.805C37.1718 22.1322 47.8862 12.9183 50.0574 10.5424C50.5891 9.96072 51.0619 9.37342 51.5191 8.80545C52.6737 7.37127 53.6708 6.13269 54.915 5.92442C55.9188 5.75595 57.2764 6.48225 58.2255 7.13413C56.8551 7.80197 55.9434 9.34567 55.7994 9.60147C55.5901 9.89195 53.3234 12.9783 49.1216 16.4139C45.0764 19.7216 38.3553 24.0408 29.3088 25.8343C26.7713 26.3374 24.8681 28.4966 24.6808 31.0852C24.2178 37.4819 24.0973 49.9756 28.4913 61.7807C30.9364 68.3496 34.4729 73.8531 39.0025 78.1386C43.815 82.6916 49.8046 85.9151 56.8337 87.7437C53.3892 88.14 50.7844 87.254 50.753 87.243ZM86.0237 23.2684L85.302 45.3795L85.3015 45.3985L85.3021 45.4172C85.3035 45.4574 85.4239 49.5037 84.0722 55.4175C82.8272 60.8648 80.0423 69.0574 73.8438 77.1626C73.5115 77.5433 65.6555 86.4616 59.5345 87.2254C24.9862 80.0678 24.9766 42.5135 25.7979 31.166C25.9489 29.0789 27.4823 27.3382 29.5267 26.9329C38.8174 25.091 45.7135 20.6533 49.8625 17.2548C54.3635 13.5682 56.6373 10.3576 56.732 10.2227L56.7652 10.169C57.1018 9.55321 58.2459 7.95346 59.4818 7.94663C59.4846 7.94658 59.4873 7.94658 59.4899 7.94658C60.0519 7.94658 60.613 8.27081 61.1668 8.90914L61.1629 8.91473C61.17 8.91957 61.1769 8.92416 61.1839 8.92899C61.4698 9.26196 61.7537 9.67715 62.0346 10.1779C64.0822 13.8281 68.5441 15.4216 71.0215 16.0466C74.7662 16.9913 78.6781 16.9713 81.2326 15.9934C81.2495 15.987 82.9279 15.3608 84.249 16.3261C85.6133 17.3231 86.227 19.7237 86.0237 23.2684Z" fill="#0E0E0E"/>
<path d="M56.2753 17.2078C56.4573 16.9577 56.4019 16.6075 56.1517 16.4256C55.9017 16.2435 55.5513 16.2989 55.3695 16.5491C50.5107 23.2311 44.8202 24.3307 44.7633 24.341C44.4594 24.3955 44.2568 24.6859 44.3108 24.99C44.3589 25.2615 44.5951 25.4523 44.8615 25.4523C44.894 25.4523 44.9269 25.4495 44.96 25.4436C45.2097 25.3993 51.1344 24.2776 56.2753 17.2078Z" fill="#0E0E0E"/>
<path d="M67.2437 73.1094C66.9412 73.0461 66.6444 73.2398 66.5808 73.5423C66.5654 73.615 64.9877 80.8161 59.4007 81.9313C54.5942 82.8908 48.6315 75.6076 48.5719 75.534C48.3773 75.2936 48.0247 75.2564 47.7843 75.451C47.544 75.6455 47.5067 75.998 47.7012 76.2384C47.9444 76.5391 53.3446 83.1374 58.5088 83.1374C58.8808 83.1374 59.2524 83.103 59.6199 83.0296C62.2498 82.5047 64.4797 80.7279 66.0683 77.8914C67.248 75.7852 67.66 73.853 67.677 73.7717C67.7401 73.4691 67.5462 73.1728 67.2437 73.1094Z" fill="#0E0E0E"/>
<path opacity="0.4" d="M75.4924 83.9972C76.247 85.0932 75.6783 88.4317 77.0784 88.4317C78.4785 88.4317 80.2104 86.7193 81.8074 85.9367C82.4013 85.6457 82.734 85.1215 82.9679 84.5931C83.1812 84.1115 83.6923 83.1969 83.3127 82.7875C82.9332 82.3781 82.2905 81.7724 81.7218 81.5475C80.4986 81.0637 78.6538 81.2785 77.3257 81.0348C76.4419 80.8727 74.7401 80.4681 74.1463 81.2495C73.5603 82.0207 75.0642 83.3779 75.4924 83.9972Z" fill="#0E0E0E"/>
<path opacity="0.4" d="M36.0339 90.4926C35.5491 90.8062 35.0611 91.2716 35.0916 91.8482C35.1254 92.4868 35.7651 92.902 36.3487 93.1634C38.0518 93.9263 39.9203 94.3171 41.7864 94.3007C41.5291 92.7318 41.9048 91.0681 42.8116 89.762C43.1166 89.3227 44.0843 87.9946 43.1398 87.6062C42.7295 87.4374 41.5137 88.3629 41.0805 88.5288C39.3951 89.1744 37.5704 89.4987 36.0339 90.4926Z" fill="#0E0E0E"/>
<path opacity="0.4" d="M14.085 92.8277C12.9725 93.0169 11.312 92.974 11.312 93.5181C11.312 94.0622 13.4657 95.0531 14.8143 95.8304C15.0663 95.9756 15.3545 96.1879 15.3206 96.4768C15.3049 96.6111 15.219 96.7257 15.1308 96.8281C14.1854 97.9259 12.7082 98.3951 11.5768 99.3C11.3844 99.4538 11.1921 99.6371 11.1413 99.8781C11.0663 100.233 11.3244 100.573 11.6088 100.799C12.9493 101.862 14.8813 101.528 16.5477 101.14C20.6891 100.177 24.8304 99.2133 28.9718 98.2499C29.0808 98.2245 29.1944 98.1969 29.2794 98.1241C29.4541 97.9745 29.7415 97.616 29.7055 97.3888C29.5203 96.2204 29.1635 95.1328 29.59 94.0294C30.2029 92.4435 32.5324 89.982 33.3455 88.5949C34.249 87.0535 31.955 88.8087 30.8856 89.1027C27.2992 90.0883 23.6803 90.9565 20.0377 91.708C18.068 92.1143 16.0788 92.5574 14.085 92.8277Z" fill="#0E0E0E"/>
<path opacity="0.4" d="M100.56 75.8883C101.64 75.6282 103.127 74.9457 103.338 75.4382C103.549 75.9306 101.983 77.6624 101.064 78.8887C100.892 79.1179 100.714 79.4217 100.856 79.6701C100.923 79.7855 101.045 79.8559 101.164 79.9144C102.446 80.5415 103.604 80.6759 104.979 81.0563C105.213 81.121 105.975 81.3365 106.114 81.5349C106.32 81.8273 106.242 82.1906 106.072 82.5049C105.271 83.9868 103.212 84.0714 101.554 84.3665C97.4319 85.1 93.3101 85.8335 89.1883 86.567C89.0798 86.5863 88.9663 86.6054 88.8611 86.5724C88.645 86.5047 88.2459 86.2916 88.1905 86.0721C87.9051 84.9428 87.6418 82.191 86.828 81.3576C85.6584 80.1599 83.8791 79.6168 81.4867 79.5239C79.7289 79.4556 82.8282 79.1784 83.9101 79.0298C87.5382 78.5316 91.1502 77.9145 94.7384 77.1825C96.6787 76.7867 98.6508 76.4166 100.56 75.8883Z" fill="#0E0E0E"/>
<path d="M17.054 100.139C16.5338 100.248 16.0819 100.356 15.6831 100.45C14.0836 100.83 13.3536 101.003 11.9601 100.478C11.7465 100.397 11.627 100.333 11.5621 100.29C11.7667 100.049 12.4557 99.6027 13.0714 99.204L13.1457 99.1559C14.5492 98.4304 16.1423 97.2284 16.044 96.2101C16.0075 95.8326 15.7519 95.548 15.3346 95.4268C14.2489 95.1322 13.2464 94.6573 13.1155 94.5943C12.0261 93.9578 11.6449 93.601 11.5126 93.4379C11.8402 93.3206 12.6323 93.2732 13.0858 93.2461C13.2521 93.236 13.4146 93.2263 13.5671 93.2149C15.2179 93.0913 18.2325 92.6525 18.36 92.6338C18.6242 92.5953 18.8072 92.3498 18.7686 92.0856C18.73 91.8213 18.4849 91.6385 18.2203 91.677C18.1894 91.6815 15.1117 92.1294 13.4949 92.2506C13.3469 92.2616 13.1893 92.2711 13.028 92.2807C11.8228 92.3528 10.6845 92.421 10.502 93.187C10.3509 93.8207 10.9515 94.4521 12.6442 95.439C12.6541 95.4447 12.6641 95.4501 12.6743 95.4551C12.7209 95.478 13.8286 96.0199 15.0716 96.3574C14.983 96.6518 14.2772 97.4867 12.6818 98.3071C12.6675 98.3144 12.6536 98.3225 12.6401 98.3313L12.5459 98.3923C11.2144 99.2544 10.4809 99.7293 10.5538 100.408C10.6107 100.937 11.1529 101.207 11.619 101.383C12.3649 101.664 12.9742 101.773 13.5656 101.773C14.2981 101.773 15.0033 101.606 15.9064 101.391C16.2995 101.298 16.745 101.192 17.253 101.085C17.5143 101.031 17.6816 100.774 17.6267 100.513C17.5718 100.251 17.3155 100.084 17.054 100.139Z" fill="#0E0E0E"/>
<path d="M24.2787 98.6373L18.5461 99.7289C18.2838 99.7789 18.1116 100.032 18.1616 100.294C18.2057 100.526 18.4085 100.688 18.636 100.688C18.666 100.688 18.6965 100.685 18.727 100.679L24.4596 99.5873C24.7219 99.5373 24.8941 99.2842 24.8442 99.0219C24.7942 98.7596 24.5415 98.5872 24.2787 98.6373Z" fill="#0E0E0E"/>
<path d="M107.014 81.586C106.898 81.1908 106.51 81.111 106.018 81.0099C105.612 80.9265 105.056 80.8122 104.342 80.5391C103.931 80.382 103.531 80.238 103.144 80.0987C102.587 79.8981 101.933 79.6627 101.542 79.4779C102.319 78.9545 102.841 78.146 102.919 78.0219C104.07 76.3628 104.363 75.4536 103.929 74.8845C103.389 74.1753 102.162 74.6084 100.976 75.0269L100.89 75.0571C99.3617 75.5955 96.3591 76.4131 96.3289 76.4213C96.0657 76.4929 95.9102 76.7643 95.9818 77.0276C96.0534 77.2909 96.3243 77.4466 96.5881 77.3747C96.7126 77.3409 99.6558 76.5395 101.218 75.989L101.304 75.9587C101.76 75.7978 102.795 75.4321 103.129 75.499C103.122 75.6431 103.019 76.1467 102.099 77.469L102.083 77.4939C102.078 77.503 101.522 78.4024 100.772 78.7877C100.325 79.0174 100.277 79.3362 100.288 79.5057C100.329 80.1351 101.158 80.4336 102.81 81.0283C103.192 81.1659 103.587 81.3083 103.989 81.4619C104.739 81.7487 105.342 81.8792 105.755 81.9646C104.637 83.0416 103.569 83.6589 101.002 84.0216C100.732 84.0598 100.543 84.3097 100.582 84.5799C100.617 84.8266 100.828 85.0049 101.07 85.0049C101.093 85.0049 101.116 85.0033 101.14 85C103.694 84.6391 105.049 84.0357 106.51 82.6089C106.803 82.3228 107.135 81.9985 107.014 81.586Z" fill="#0E0E0E"/>
<path d="M99.4257 84.2587L93.7038 85.4052C93.4419 85.4577 93.2722 85.7124 93.3246 85.9743C93.3707 86.2041 93.5725 86.363 93.7982 86.363C93.8298 86.363 93.8617 86.3599 93.8937 86.3535L99.6156 85.207C99.8775 85.1545 100.047 84.8998 99.9948 84.6379C99.9422 84.376 99.6872 84.2064 99.4257 84.2587Z" fill="#0E0E0E"/>
<path d="M91.8459 85.659L88.8163 86.2067C88.815 86.0641 88.8136 85.9189 88.8121 85.7687C88.7843 82.9033 87.6669 80.8727 85.4905 79.7334C85.0533 79.5045 84.5893 79.322 84.1086 79.179L94.5426 77.7699C94.8072 77.7342 94.9927 77.4907 94.957 77.2261C94.9213 76.9614 94.6777 76.7755 94.4131 76.8116L79.6869 78.8003C77.3222 78.9904 75.2081 79.6887 74.3702 80.2577C74.2701 80.3257 74.0278 80.4908 73.906 80.7383C73.8379 80.7971 73.775 80.8729 73.7256 80.9692C73.5563 81.2988 73.4543 81.9515 74.518 83.8063C75.8665 86.1578 76.4931 87.6922 75.7057 88.577L75.7402 88.6076C74.9461 88.9119 74.1454 89.1706 73.3692 89.3673C73.0231 89.455 72.7362 89.5361 72.4324 89.622C70.6628 90.1225 68.2392 90.8078 49.3484 93.8705C49.3429 93.8714 49.3375 93.8724 49.3321 93.8734C46.7415 94.3848 44.3567 94.4893 42.3321 94.3304C41.7309 93.4265 42.3598 91.9338 43.635 89.7101C44.3186 88.518 44.4864 87.6739 44.148 87.1296C44.0059 86.9009 43.8115 86.7791 43.6341 86.7142C43.4029 86.3527 42.8125 86.305 42.5349 86.2832C42.202 86.2573 41.8788 86.2629 41.7922 86.2651C39.8763 86.1662 38.233 86.3745 36.8339 86.7612C36.1177 86.8861 31.0834 87.7863 26.9754 89.1157C22.6072 90.5293 20.1503 91.2414 20.126 91.2484C19.8695 91.3225 19.7216 91.5906 19.7957 91.8471C19.8569 92.0589 20.0502 92.1965 20.26 92.1965C20.3045 92.1965 20.3497 92.1904 20.3945 92.1773C20.4189 92.1703 22.8885 91.4547 27.2732 90.0357C29.1898 89.4155 31.3144 88.8896 33.0951 88.4947C32.5658 88.8613 32.1103 89.2414 31.7231 89.6087C29.9044 91.334 29.0761 93.2969 29.0761 94.3906C29.0761 95.8402 29.171 96.9517 29.2338 97.5291L26.0537 98.3C25.7942 98.363 25.6348 98.6243 25.6977 98.8839C25.7514 99.1051 25.9493 99.2536 26.1672 99.2536C26.205 99.2536 26.2433 99.2491 26.2816 99.2399L29.3105 98.5056C29.4773 100.866 30.3791 102.79 31.9409 104.094C33.306 105.233 35.0901 105.828 37.0812 105.828C37.6457 105.828 38.2272 105.78 38.82 105.683C41.1788 105.298 57.6527 102.236 68.554 100.209C73.9007 99.2151 78.1238 98.43 78.3549 98.3936C82.9052 97.6766 86.0469 96.1482 87.6927 93.8506C88.9978 92.0288 88.8886 90.3356 88.8424 89.9492C88.8433 89.9291 88.8438 89.9085 88.8438 89.8873C88.8441 89.7801 88.8437 89.5981 88.842 89.2985C88.8393 88.8163 88.8337 88.109 88.8254 87.1878L92.018 86.6106C92.2808 86.5631 92.4553 86.3116 92.4077 86.0488C92.3603 85.786 92.109 85.6113 91.8459 85.659ZM75.3569 83.3253C74.7861 82.3298 74.6331 81.8172 74.5965 81.578C74.6112 81.5784 74.6259 81.5788 74.64 81.5792C74.8308 81.5839 75.1005 81.5832 75.4411 81.577C76.0448 81.5659 76.7295 81.5403 77.0973 81.5268C77.2219 81.5221 77.3055 81.5189 77.3256 81.5186C82.1693 81.5186 82.8293 82.6176 82.8883 83.0901C82.9891 83.8983 81.9126 85.1644 80.0789 86.3944C79.157 87.0128 78.0948 87.591 76.9852 88.0898C77.2279 86.767 76.3921 85.1305 75.3569 83.3253ZM43.3388 87.6746C43.3665 87.7857 43.3916 88.1907 42.7961 89.2291C41.703 91.1352 40.8316 92.8534 41.2183 94.2127C38.1447 93.7981 36.1116 92.7526 35.7959 91.6986C35.5014 90.7156 37.0679 89.9461 37.7855 89.6505C39.8641 89.0712 41.3957 88.5804 42.3374 88.1916C42.7566 88.0186 43.0982 87.8533 43.3388 87.6746ZM86.8876 93.3138C85.4127 95.3494 82.41 96.7757 78.2044 97.4384C77.9602 97.4768 73.9406 98.2241 68.3771 99.2584C57.4802 101.284 41.0125 104.346 38.6643 104.729C36.2618 105.121 34.0941 104.632 32.5607 103.351C31.0904 102.124 30.2913 100.235 30.2496 97.889C30.2496 97.8875 30.2493 97.886 30.2492 97.8846C30.2491 97.8799 30.2484 97.8752 30.2481 97.8706C30.2473 97.856 30.2466 97.8414 30.2445 97.827C30.2425 97.8134 30.0432 96.4343 30.0432 94.3906C30.0432 93.6448 30.6678 91.9428 32.3886 90.3102C33.3974 89.3532 34.9139 88.3031 37.0633 87.7029C37.0736 87.7012 37.0801 87.7001 37.0816 87.6998C37.1171 87.6938 37.1506 87.6836 37.1825 87.6706C38.2498 87.384 39.4695 87.2077 40.8586 87.2077C41.1518 87.2077 41.4526 87.2155 41.761 87.2319C41.7747 87.2325 41.7886 87.2328 41.8024 87.2322C41.9114 87.2287 42.0247 87.2284 42.1355 87.2311C41.4565 87.5232 40.1217 87.9962 37.4987 88.7265C37.4807 88.7315 37.463 88.7376 37.4458 88.7446C34.6977 89.8652 34.6521 91.2503 34.8695 91.9761C35.2566 93.2683 37.0072 94.3445 39.6724 94.9289C42.5131 95.5518 46.007 95.5147 49.511 94.8238C68.4504 91.7532 70.8038 91.0875 72.6955 90.5526C72.9928 90.4685 73.2735 90.3892 73.6067 90.3047C78.6076 89.0375 84.1705 85.5575 83.8479 82.9703C83.6476 81.3653 81.4532 80.5515 77.3256 80.5515C77.307 80.5515 77.2104 80.5548 77.0614 80.5603C76.5874 80.5779 76.1964 80.5906 75.8742 80.5994C76.4447 80.3855 77.2106 80.1609 78.1239 79.9907C79.3903 79.7546 81.8379 79.4627 84.0037 80.1592C86.5245 80.9701 87.8169 82.8606 87.8451 85.778C87.8479 86.0669 87.8504 86.3352 87.8528 86.5862C87.8106 86.6745 87.7938 86.7759 87.8125 86.8796C87.8208 86.9255 87.8369 86.9678 87.8567 87.0076C87.8743 88.9409 87.8774 89.6348 87.8769 89.8777C87.8726 89.9057 87.8707 89.9345 87.8714 89.9639C87.8728 90.0193 87.8785 90.069 87.888 90.1137C87.922 90.4583 87.9717 91.8176 86.8876 93.3138Z" fill="#0E0E0E"/>
<path d="M53.9532 54.6638L66.7282 31.4129C66.7282 31.4129 66.7362 29.8521 69.5457 29.3946C72.3552 28.9371 74.9263 28.5447 74.9263 28.5447C74.9263 28.5447 75.945 28.6058 76.729 29.0785C77.5131 29.5513 77.2977 29.6387 77.147 29.773C76.9963 29.9074 73.538 30.2289 72.6026 30.6135C71.6671 30.9981 69.6653 32.3599 68.3701 35.5392C67.0749 38.7185 58.0413 54.9959 58.0413 54.9959C58.0413 54.9959 57.5642 56.6357 55.9967 56.1923C54.4293 55.7489 53.9532 54.6638 53.9532 54.6638Z" fill="#0E0E0E"/>
<path d="M48.5636 49.9244C47.3635 49.1459 46.1183 48.3603 44.7118 48.0991C43.7605 47.9224 42.7822 47.9956 41.8189 48.0864C38.7197 48.3785 35.5891 48.8604 32.758 50.1546C32.5811 50.2355 32.3797 50.3571 32.3748 50.5515C32.3712 50.6922 32.4762 50.8096 32.577 50.9077C33.6081 51.911 34.937 52.6043 36.3497 52.8762C36.9929 52.0847 37.672 51.2651 38.6057 50.8548C39.2012 50.5932 39.8591 50.5179 40.5055 50.4455C42.9694 50.1699 45.4356 49.894 47.9125 49.7879C47.6901 49.928 47.4676 50.0681 47.2452 50.2083" fill="#0E0E0E"/>
<path d="M57.2193 70.4855C56.75 70.4227 41.2322 57.167 41.2322 57.167C41.2322 57.167 37.3305 52.8761 36.8401 52.8761C36.3497 52.8761 34.6984 52.3489 34.6984 52.3489L49.7201 66.2828C49.7201 66.2828 54.4089 70.5484 57.2193 70.4855Z" fill="#0E0E0E"/>
<path d="M56.4635 56.7363C56.5771 56.7363 56.6902 56.7257 56.8022 56.7046C57.7624 56.5242 58.2383 55.6213 58.2555 55.5878L58.9801 54.2228C59.101 53.9951 59.0144 53.7126 58.7868 53.5918C58.5594 53.4711 58.2765 53.5575 58.1558 53.7852L57.4286 55.155C57.4259 55.1603 57.1388 55.6917 56.6297 55.7874C56.2481 55.8592 55.802 55.6726 55.3039 55.2332L54.5643 54.5808L67.3857 31.1843C67.7492 30.5209 68.4175 30.0512 69.1733 29.9282L74.612 29.0425C75.142 28.9563 75.6954 29.0433 76.1718 29.2876L76.5149 29.4944L73.1776 30.0014C72.9042 30.0261 70.4343 30.318 69.1789 32.8452C69.0642 33.076 69.1583 33.356 69.3891 33.4707C69.4558 33.5039 69.5267 33.5195 69.5964 33.5195C69.768 33.5195 69.9332 33.4245 70.0147 33.2604C71.0738 31.1286 73.1785 30.9375 73.2658 30.9305C73.278 30.9296 73.2903 30.9283 73.3024 30.9265L77.8577 30.2345C78.1125 30.1958 78.2877 29.9578 78.249 29.703C78.2316 29.5889 78.1732 29.4924 78.0925 29.4223L78.1219 29.3735L76.6407 28.4804L76.6151 28.4661C75.9586 28.1245 75.1941 28.0022 74.4619 28.1213L69.0233 29.007C67.9705 29.1784 67.0753 29.8085 66.5672 30.7358L53.8468 53.9479L50.9774 51.4167L50.3599 52.1166L54.6865 55.9331C55.2919 56.4672 55.888 56.7363 56.4635 56.7363Z" fill="#0E0E0E"/>
<path d="M69.1624 34.047C68.935 33.9262 68.6521 34.0127 68.5314 34.2404L58.9004 52.3824C58.7796 52.61 58.8662 52.8925 59.0938 53.0134C59.1635 53.0504 59.2384 53.0679 59.3122 53.0679C59.4793 53.0679 59.641 52.9779 59.7248 52.82L69.3557 34.678C69.4765 34.4504 69.39 34.1678 69.1624 34.047Z" fill="#0E0E0E"/>
<path d="M60.1683 67.8786C59.4071 69.3872 58.9827 69.7564 58.8503 69.8418C58.6941 69.8032 58.5223 69.8464 58.4024 69.9703C58.3301 70.045 58.2893 70.1377 58.2767 70.2334C58.1791 70.0534 57.972 69.9521 57.762 70.0006C56.7577 70.2356 55.8286 69.1903 55.8202 69.1807C55.8055 69.1637 55.7897 69.1479 55.7727 69.1332L48.5819 62.9051C48.3873 62.7364 48.0924 62.7575 47.9237 62.9523C47.7549 63.1471 47.7761 63.4419 47.9709 63.6106L54.356 69.1409C53.0712 68.5128 52.1031 67.7703 51.9989 67.6892L35.9463 53.378C36.3305 53.6039 36.6282 53.7808 36.7831 53.8732C36.8043 53.9066 36.8254 53.9399 36.8481 53.9735C36.8711 54.0076 36.8985 54.0384 36.9296 54.0653L46.348 62.205C46.4362 62.2812 46.5448 62.3186 46.6529 62.3186C46.7838 62.3186 46.9139 62.2638 47.0062 62.1571C47.1747 61.962 47.1533 61.6674 46.9583 61.4988L37.5882 53.4008C37.2871 52.9385 37.1927 52.5466 37.3079 52.2356C37.4803 51.7697 38.1122 51.4968 38.3643 51.423L40.1233 51.1345C40.3777 51.0928 40.55 50.8528 40.5083 50.5985C40.4666 50.3441 40.227 50.1716 39.9723 50.2135L38.1875 50.5062C38.1726 50.5087 38.1577 50.5118 38.1431 50.5157C38.0892 50.53 36.8194 50.8784 36.4348 51.9057C36.361 52.1027 36.3249 52.3072 36.3257 52.5184C35.3166 51.9262 33.7867 51.042 32.6571 50.4505C33.0737 50.2088 34.1465 49.8797 35.2211 49.6783L42.7129 48.5036L42.7421 48.4981C44.5178 48.1023 45.3174 48.555 45.318 48.5551L45.3509 48.5743C45.361 48.5797 45.8992 48.8652 46.5658 49.246C46.4383 49.2572 46.3076 49.2717 46.1714 49.2924L41.6546 49.9791L41.7949 50.9018L46.3117 50.2152C48.3358 49.9074 49.0381 50.9054 49.0737 50.9583C49.1627 51.0969 49.313 51.1727 49.4667 51.1727C49.5513 51.1727 49.6369 51.1498 49.7139 51.1016C49.9324 50.9648 49.9986 50.6769 49.8619 50.4584C49.8405 50.4243 49.556 49.9854 48.8962 49.6403L48.9203 49.6059C47.8155 48.8309 45.9839 47.8536 45.7998 47.7559C45.6175 47.6475 44.6048 47.1301 42.5538 47.5839L35.0697 48.7573L35.0563 48.7596C35.0249 48.7654 34.2787 48.9057 33.507 49.1313C32.2434 49.5009 31.6726 49.8701 31.5986 50.3661C31.563 50.6045 31.6299 50.9432 32.1297 51.2258L51.3888 68.3957L51.4088 68.4125C51.5273 68.5067 54.3269 70.7095 57.1331 70.9459C57.2391 70.9607 57.3478 70.9689 57.4589 70.9689C57.6257 70.9689 57.7981 70.9507 57.9742 70.9096C58.1686 70.8642 58.3046 70.703 58.3294 70.5161C58.3516 70.557 58.3781 70.5961 58.4133 70.6302C58.523 70.7363 58.6793 70.7942 58.8473 70.7942C58.8884 70.7942 58.9303 70.7906 58.9723 70.7836C59.3364 70.7221 59.9427 70.3977 61.0016 68.299L70.7662 48.9465C70.7662 48.9465 70.8272 48.5781 70.5203 48.4323C70.1597 48.2942 69.933 48.526 69.933 48.526L60.1683 67.8786Z" fill="#0E0E0E"/>
<path d="M79.2137 30.5384C79.1435 30.2903 78.8855 30.1461 78.6377 30.2162C78.3896 30.2863 78.2454 30.5442 78.3155 30.7922C78.4829 31.3842 78.0444 32.5076 77.7288 33.0762C77.7257 33.0818 77.7227 33.0874 77.7199 33.0931L70.6168 47.1707C70.5007 47.4008 70.5931 47.6814 70.8232 47.7975C70.8906 47.8316 70.9623 47.8476 71.033 47.8476C71.2036 47.8476 71.368 47.7538 71.45 47.5911L78.549 33.5217C78.6721 33.299 79.5352 31.6763 79.2137 30.5384Z" fill="#0E0E0E"/>
</svg>
