<svg width="112" height="112" viewBox="0 0 112 112" fill="none" xmlns="http://www.w3.org/2000/svg">
<path d="M61.1209 81.1449C60.0714 82.1752 59.1224 83.3585 58.6517 84.752C58.1811 86.1454 58.2513 87.7805 59.1087 88.9755C60.0151 90.2388 61.6012 90.8038 63.118 91.1457C69.1511 92.5056 75.4359 91.4515 81.5261 90.3761C84.3083 89.8847 87.1316 89.3762 89.6695 88.1351C91.419 87.2796 93.5443 86.2581 94.5286 84.5778C95.513 82.8975 96.209 80.9096 95.3447 79.1645C94.5734 77.6072 93.1959 75.1857 91.6019 74.4934C88.0939 72.9696 83.1572 72.39 79.3528 72.7838C75.299 73.2033 67.0619 77.0222 66.8757 76.918" fill="#0E0E0E"/>
<path d="M68.725 61.8499C68.725 61.8499 70.8461 64.0793 71.2229 67.0803C71.5997 70.0813 72.9944 72.2718 74.7612 71.5428C75.6577 71.1729 77.7074 67.7361 76.2945 65.6624C75.6024 64.6466 81.0877 63.2909 79.5094 61.0775C79.5094 61.0775 76.2588 58.8707 80.415 56.654C84.5713 54.4373 93.2217 41.315 88.6819 40.0502C84.1421 38.7854 82.887 45.739 75.3421 49.3753C67.7972 53.0116 52.1552 50.6088 53.4484 54.5071C54.7416 58.4055 63.8955 58.0876 68.725 61.8499Z" fill="#0E0E0E"/>
<path d="M66.0758 54.773C65.7776 54.773 65.5297 54.538 65.5168 54.2372C65.5034 53.9282 65.743 53.6669 66.0521 53.6535C70.2055 53.4739 74.3207 52.4945 78.3006 51.5473C84.0654 50.1753 85.1661 48.6871 85.3718 48.1109C85.5196 47.697 85.3449 47.4234 85.3084 47.3728L85.2806 47.3428L85.2725 47.3237C85.1404 47.1229 84.9845 47.01 84.7816 46.9683C84.3389 46.8773 83.6573 47.1155 82.8639 47.6394C82.6058 47.8098 82.2584 47.7388 82.088 47.4806C81.9176 47.2225 81.9887 46.8751 82.2468 46.7047C83.3203 45.996 84.2497 45.7158 85.007 45.8712C85.4902 45.9706 85.8995 46.2513 86.1922 46.684C86.4197 46.9746 86.7071 47.6387 86.4445 48.4353C85.8927 50.1095 83.2399 51.5231 78.5599 52.6369C74.5289 53.5962 70.3607 54.5882 66.1005 54.7725C66.0922 54.7728 66.084 54.773 66.0758 54.773Z" fill="#0E0E0E"/>
<path d="M69.8261 59.2262C70.3087 59.2262 70.6999 58.835 70.6999 58.3524C70.6999 57.8697 70.3087 57.4785 69.8261 57.4785C69.3435 57.4785 68.9523 57.8697 68.9523 58.3524C68.9523 58.835 69.3435 59.2262 69.8261 59.2262Z" fill="#0E0E0E"/>
<path d="M76.6856 56.5746C77.2402 56.5746 77.6897 56.125 77.6897 55.5705C77.6897 55.016 77.2402 54.5664 76.6856 54.5664C76.1311 54.5664 75.6816 55.016 75.6816 55.5705C75.6816 56.125 76.1311 56.5746 76.6856 56.5746Z" fill="#0E0E0E"/>
<path d="M75.6816 62.0844C76.1811 62.0844 76.586 61.6795 76.586 61.18C76.586 60.6805 76.1811 60.2756 75.6816 60.2756C75.1821 60.2756 74.7772 60.6805 74.7772 61.18C74.7772 61.6795 75.1821 62.0844 75.6816 62.0844Z" fill="#0E0E0E"/>
<path d="M88.7064 85.8148C89.5107 85.8148 90.1627 85.1629 90.1627 84.3586C90.1627 83.5543 89.5107 82.9023 88.7064 82.9023C87.9022 82.9023 87.2502 83.5543 87.2502 84.3586C87.2502 85.1629 87.9022 85.8148 88.7064 85.8148Z" fill="#0E0E0E"/>
<path d="M61.8855 85.8149C62.4719 85.8149 62.9472 85.3395 62.9472 84.7531C62.9472 84.1668 62.4719 83.6914 61.8855 83.6914C61.2991 83.6914 60.8237 84.1668 60.8237 84.7531C60.8237 85.3395 61.2991 85.8149 61.8855 85.8149Z" fill="#0E0E0E"/>
<path d="M73.833 68.6037C74.2198 68.6037 74.5333 68.2901 74.5333 67.9034C74.5333 67.5166 74.2198 67.2031 73.833 67.2031C73.4463 67.2031 73.1328 67.5166 73.1328 67.9034C73.1328 68.2901 73.4463 68.6037 73.833 68.6037Z" fill="#0E0E0E"/>
<path d="M81.4391 79.6587C81.8258 79.6587 82.1394 79.3451 82.1394 78.9584C82.1394 78.5716 81.8258 78.2581 81.4391 78.2581C81.0523 78.2581 80.7388 78.5716 80.7388 78.9584C80.7388 79.3451 81.0523 79.6587 81.4391 79.6587Z" fill="#0E0E0E"/>
<path d="M73.833 78.2581C74.2198 78.2581 74.5333 77.9446 74.5333 77.5578C74.5333 77.171 74.2198 76.8574 73.833 76.8574C73.4463 76.8574 73.1328 77.171 73.1328 77.5578C73.1328 77.9446 73.4463 78.2581 73.833 78.2581Z" fill="#0E0E0E"/>
<path opacity="0.4" d="M58.3623 53.4822C58.3623 53.4822 56.3855 52.7352 55.2941 52.304C55.5841 53.1636 56.4168 55.3787 56.4804 55.5093C57.6186 55.9595 58.8425 56.4269 59.7378 56.7663C59.3074 55.76 58.4113 53.5877 58.3623 53.4822Z" fill="white"/>
<path opacity="0.4" d="M67.9581 85.9568C67.9581 85.9568 65.9813 85.2098 64.8899 84.7786C65.1799 85.6383 66.0126 87.8534 66.0762 87.984C67.2144 88.4342 68.4382 88.9016 69.3335 89.241C68.9032 88.2347 68.0071 86.0623 67.9581 85.9568Z" fill="white"/>
<path d="M105.612 86.424C104.682 84.5023 103.372 83.2113 102.292 82.3988C102.026 82.1312 101.375 81.5529 100.526 81.3244C100.434 81.282 100.374 81.2575 100.358 81.2511L100.346 81.2818C100.188 81.25 100.024 81.231 99.855 81.2289C100.184 78.6196 99.1174 75.2552 96.7688 71.6638C94.0795 67.5514 90.0747 63.7376 86.3172 61.7107C84.1171 60.5239 82.5491 60.0522 81.7068 59.7987C81.6936 59.7948 81.6805 59.7907 81.6672 59.7868C81.737 59.7355 81.8097 59.6826 81.8818 59.6301C82.9449 58.8552 84.9239 57.4131 87.8779 54.3672C91.0212 51.1262 92.8294 46.9202 93.2521 41.866C93.5913 37.8109 92.9264 34.1892 92.4967 32.3806C93.9208 30.5619 94.2302 28.7518 93.4146 26.9993C91.2301 22.3057 89.4912 21.3473 88.9582 21.1566C87.4946 20.3618 85.2906 19.8447 82.4011 19.6316C77.5273 19.272 71.2827 19.8385 64.8167 21.2264C58.3506 22.6143 52.4233 24.6606 48.1267 26.9883C43.9851 29.2321 41.8241 31.465 41.8179 33.4874C41.4449 35.2593 41.1453 38.2103 42.5102 40.5217C43.1247 41.5624 44.0062 42.3574 45.1449 42.9003C45.13 42.973 45.1292 43.0498 45.1454 43.127C46.1283 47.8198 48.942 56.2487 56.7421 59.9729C60.5711 61.8012 62.9281 62.4651 64.1944 62.8217C64.2802 62.846 64.3667 62.8703 64.4499 62.8942C64.4389 62.9025 64.428 62.9108 64.417 62.9191C63.7154 63.4496 62.4094 64.4374 60.7595 66.3152C57.9416 69.5224 55.5133 74.491 54.4221 79.282C53.5112 83.2817 53.6262 86.6799 54.7005 89.0087C54.425 89.1676 53.8553 89.5404 53.3886 90.1361C53.2097 90.3645 53.0362 90.6383 52.9017 90.9554C52.268 92.1798 51.0105 95.2131 52.2386 98.16C53.3559 100.841 56.2136 102.695 60.7321 103.669L60.7467 103.672C63.9428 104.273 67.0893 104.52 70.1057 104.52C76.9438 104.519 83.1058 103.25 87.6106 101.954C95.0606 99.8119 100.546 96.9116 102.266 95.5796C103.188 94.9252 104.47 93.6606 105.313 92.064C106.347 90.107 106.451 88.1568 105.612 86.424ZM43.2685 32.3772C43.989 31.0399 45.8704 29.4846 48.6603 27.9731C52.8657 25.6947 58.687 23.6876 65.0517 22.3214C70.173 21.2222 75.1433 20.6458 79.375 20.6458C80.4025 20.6458 81.3868 20.6798 82.3187 20.7486C86.7387 21.0746 89.5786 22.2058 89.9153 23.7746C90.252 25.3433 88.1265 27.5403 84.2296 29.6515C80.0242 31.9298 74.2029 33.937 67.8382 35.3031C61.4734 36.6692 55.3411 37.2276 50.5712 36.876C46.1512 36.55 43.3113 35.4188 42.9746 33.85C42.9573 33.7697 42.9482 33.6873 42.9438 33.6038C43.0787 32.9811 43.217 32.535 43.2685 32.3772ZM43.4765 39.9555C42.6803 38.6094 42.5551 36.9506 42.6615 35.5228C43.9241 36.8597 46.5789 37.7046 50.4888 37.9929C51.4457 38.0635 52.4548 38.0984 53.5087 38.0984C57.8224 38.0984 62.8768 37.5136 68.0732 36.3982C74.5392 35.0103 80.4665 32.964 84.7632 30.6362C88.438 28.6453 90.5529 26.6631 90.9876 24.8288C91.4179 25.5169 91.8922 26.3825 92.3992 27.4719C93.8668 30.6256 90.2829 33.2777 87.1207 35.6176L86.9169 35.7686C82.95 38.7068 68.1588 45.6432 47.6362 42.4961C45.6816 42.1723 44.2821 41.3175 43.4765 39.9555ZM53.9038 91.4633C54.0512 91.1755 54.1555 91.0082 54.1601 91.0008L54.1492 90.9938C54.1808 90.9467 54.2142 90.8999 54.2497 90.8535C54.6015 90.3932 55.0508 90.1006 55.2499 89.9848C55.4854 90.3301 55.7485 90.6421 56.0404 90.9167C58.1984 92.9466 61.339 94.2378 65.3751 94.7547C66.7869 94.9356 68.3183 95.0261 69.9901 95.0261C72.011 95.0261 74.2369 94.8937 76.7011 94.6287C77.0087 94.5956 77.2311 94.3195 77.1981 94.012C77.165 93.7044 76.8879 93.4817 76.5814 93.5151C72.1671 93.9898 68.548 94.032 65.5173 93.6439C61.7205 93.1576 58.7901 91.9656 56.8078 90.1009C54.8707 88.2788 54.3992 84.4262 55.5142 79.5307C56.5664 74.9107 58.8986 70.13 61.6009 67.0544C63.1757 65.262 64.3756 64.3545 65.0926 63.8124C65.6884 63.3617 66.048 63.0899 65.9585 62.6156C65.8667 62.1292 65.4378 62.0084 64.498 61.7437C63.264 61.3961 60.9671 60.7492 57.2247 58.9623C50.1001 55.5606 47.3621 47.9094 46.3395 43.3487C46.6947 43.4515 47.0671 43.5371 47.4597 43.6021C51.0714 44.1559 54.6391 44.4324 58.1493 44.4324C63.7796 44.4324 69.2613 43.7209 74.5346 42.3007C81.2888 40.4816 85.9148 37.9045 87.5835 36.6686L87.787 36.5179C89.0521 35.5818 90.4484 34.5471 91.579 33.4096C92.5008 37.8053 93.4221 47.042 87.074 53.5875C84.1867 56.5645 82.2582 57.9698 81.2221 58.7249C80.433 59.2999 80.0729 59.5623 80.156 60.0503C80.237 60.5261 80.6688 60.656 81.384 60.8712C82.2448 61.1302 83.6855 61.5636 85.7855 62.6964C89.3886 64.6402 93.2381 68.3111 95.8315 72.2768C98.5794 76.4788 99.4773 80.2549 98.295 82.6369C97.0849 85.0747 94.7521 87.2115 91.3614 88.9879C88.6549 90.4059 85.2471 91.6252 80.9433 92.7153C80.6436 92.7912 80.4621 93.0958 80.538 93.3957C80.6023 93.6493 80.8302 93.8182 81.0804 93.8182C81.126 93.8182 81.1722 93.8127 81.2184 93.801C85.6082 92.6891 89.0961 91.4392 91.8811 89.9801C95.4855 88.0916 97.9809 85.7886 99.2981 83.1349C99.4193 82.8907 99.5216 82.6346 99.6069 82.3685C99.7947 82.3402 99.9792 82.3512 100.155 82.3894C100.433 82.5257 100.958 82.8101 101.576 83.2713L101.619 83.3158C102.09 83.7454 102.194 84.5106 101.912 85.4703C101.617 86.4741 100.426 89.1248 95.7551 92.0508C91.4624 94.7395 85.4946 96.791 78.4969 97.9833C70.7509 99.3031 64.4617 99.1523 59.8041 97.5347C56.4578 96.3728 54.6275 94.6063 54.0769 93.4467C53.7311 92.7183 53.6734 92.0639 53.9038 91.4633ZM101.61 94.6723L101.589 94.6875C100.203 95.7654 94.886 98.6966 87.3009 100.878C80.9271 102.711 71.1838 104.492 60.9609 102.573C56.8307 101.681 54.2446 100.054 53.2751 97.7358C52.7203 96.4094 52.778 95.0265 53.035 93.8607C53.0452 93.8829 53.0546 93.9048 53.0652 93.927C53.7395 95.3472 55.7673 97.3186 59.4367 98.5928C62.1198 99.5245 65.3054 99.9907 68.9653 99.9905C71.9049 99.9905 75.1509 99.6896 78.685 99.0874C85.8256 97.8707 91.934 95.7657 96.3496 93C99.8679 90.7963 102.287 88.1669 102.986 85.786C103.092 85.4273 103.153 85.0808 103.174 84.7509C103.692 85.3452 104.192 86.0605 104.604 86.912C106.265 90.3445 102.914 93.7499 101.61 94.6723Z" fill="#0E0E0E"/>
<path d="M68.7091 92.1573C67.9398 92.1573 67.1495 92.1481 66.3386 92.1276C61.7288 92.0113 58.9984 90.7495 58.2232 88.3774C57.1182 84.9964 60.5719 80.4287 63.3771 78.2651C64.9828 77.0267 68.6288 75.1443 73.1545 73.7307C76.7697 72.6015 82.0813 71.4224 86.8549 72.2158C90.4085 72.8067 93.0678 74.403 94.7589 76.9603C96.4113 79.4592 96.6656 81.812 95.5145 83.9532C92.8232 88.9593 83.0481 91.1032 81.9749 91.2065C81.6028 91.2696 76.218 92.1573 68.7091 92.1573ZM83.5307 72.9392C79.8704 72.9392 76.1683 73.8194 73.4476 74.6692C69.038 76.0466 65.5139 77.8587 63.9776 79.0437C61.4748 80.974 58.212 85.1783 59.1577 88.0719C59.781 89.9789 62.2727 91.0414 66.3634 91.1446C75.2379 91.3685 81.7605 90.246 81.8254 90.2346L81.8675 90.2273H81.895C82.9128 90.1281 92.52 87.9223 94.7582 83.2721C95.5956 81.5324 95.3199 79.5912 93.9387 77.5026C92.4045 75.1825 89.9669 73.7301 86.6937 73.1858C85.6598 73.0139 84.5969 72.9392 83.5307 72.9392ZM81.9061 90.2273H81.9102C81.909 90.2273 81.9075 90.2273 81.9061 90.2273Z" fill="#0E0E0E"/>
<path d="M74.2847 72.1499C73.9034 72.1499 73.5301 72.047 73.178 71.8419C72.0216 71.1686 71.1571 69.3795 70.8655 67.056C70.539 64.4562 68.7782 62.4303 68.5427 62.1696C66.4505 60.5563 63.5295 59.7295 60.704 58.9298C57.0625 57.8991 53.9176 57.009 53.115 54.5894C52.8878 53.9044 53.0776 53.4057 53.2768 53.1079C54.226 51.6893 57.5456 51.4529 62.1401 51.1258C66.6957 50.8014 71.8592 50.4337 75.2971 48.7768C78.7102 47.1318 80.8326 44.7494 82.538 42.835C84.6222 40.4953 86.2684 38.647 89.0304 39.4167C90.0033 39.6877 90.5805 40.4057 90.6996 41.4931C90.9946 44.1855 88.4162 48.43 87.294 50.13C85.1268 53.4129 82.6079 56.1308 80.8766 57.0541C79.7238 57.669 79.0955 58.3275 79.0596 58.9585C79.0193 59.6674 79.7419 60.3269 80.0237 60.5212L80.1046 60.577L80.1635 60.6583C80.497 61.1261 80.6181 61.6133 80.5234 62.1064C80.3154 63.1883 79.1366 63.9464 78.0966 64.6152C77.7382 64.8456 77.2199 65.1789 77.0363 65.3779C77.6038 66.3001 77.6915 67.4934 77.2884 68.8404C76.8644 70.2578 75.9154 71.6601 75.1729 71.9665C74.8763 72.0888 74.5782 72.1499 74.2847 72.1499ZM87.8251 40.3634C86.3215 40.3634 85.1773 41.556 83.3742 43.58C81.6026 45.5687 79.3978 48.0437 75.7833 49.7857C72.1525 51.5356 66.8755 51.9114 62.2196 52.2429C58.5975 52.5008 54.8521 52.7675 54.2076 53.7307C54.1462 53.8226 54.0872 53.9632 54.178 54.2368C54.7938 56.093 57.8128 56.9475 61.009 57.8521C63.8171 58.647 66.9999 59.5478 69.2672 61.3141L69.3 61.3397L69.3287 61.3699C69.4205 61.4663 71.5815 63.7688 71.9767 66.9165C72.2178 68.8367 72.9106 70.3901 73.7417 70.874C74.0605 71.0596 74.3889 71.0784 74.7458 70.9311C74.9935 70.8289 75.8151 69.8573 76.2154 68.5193C76.4396 67.7702 76.5893 66.7048 76.0299 65.8836C75.8898 65.6781 75.8414 65.443 75.8901 65.204C76.0074 64.627 76.662 64.2061 77.4908 63.6731C78.2568 63.1805 79.306 62.5058 79.4235 61.895C79.4441 61.7879 79.4513 61.6213 79.2978 61.3774C78.9618 61.1214 77.8725 60.1886 77.941 58.9027C77.9974 57.8426 78.8078 56.8881 80.3496 56.0659C81.904 55.2368 84.3191 52.6034 86.3593 49.5129C88.5242 46.2335 89.7606 43.2073 89.5863 41.6151C89.5174 40.9867 89.2532 40.6414 88.7298 40.4956C88.4106 40.4066 88.1112 40.3634 87.8251 40.3634Z" fill="#0E0E0E"/>
<path d="M46.2951 76.2289C46.2894 76.2289 46.2837 76.2289 46.2782 76.2289C44.5825 76.214 42.8733 74.5148 42.8276 72.7987C42.8044 71.9289 42.7916 71.2995 42.7896 70.9278C42.7887 70.7835 42.7896 70.6803 42.7921 70.6123C42.7934 70.5754 42.7967 70.5408 42.8017 70.5083L42.6681 58.6425C42.484 58.4702 42.3736 58.3528 42.3677 58.3465L42.3589 58.3369C42.0099 57.947 33.7734 48.728 30.4482 43.4725C28.7382 40.7699 29.1797 38.9532 30.0773 38.2186C30.9145 37.5335 32.606 37.4159 34.6171 39.3398L34.6437 39.3652L36.5094 41.6902L48.2745 55.7418L48.3072 55.8566C48.3676 56.0694 48.4169 56.2773 48.4574 56.4908C48.7961 57.4738 48.8651 58.4753 48.8679 58.5181L48.8691 58.5512C48.8696 58.6355 48.9207 67.0539 48.6468 73.2344C48.5242 76.0017 46.8386 76.2289 46.2951 76.2289ZM43.9472 72.7688C43.979 73.9639 45.2929 75.1002 46.2881 75.1089C46.2919 75.109 46.2957 75.109 46.2994 75.109C47.244 75.109 47.489 74.0637 47.5279 73.1848C47.7943 67.1746 47.7518 59.0274 47.7492 58.5773C47.7396 58.456 47.6644 57.6094 47.3866 56.8213L47.3719 56.7797L47.3639 56.7363C47.3354 56.5808 47.3014 56.4292 47.2608 56.2757L35.6396 42.3958L33.8167 40.1241C32.4481 38.8272 31.2882 38.675 30.7866 39.0853C30.219 39.5499 30.1671 40.9336 31.3946 42.8737C34.6362 47.9971 42.936 57.3018 43.1882 57.584C43.213 57.6101 43.3658 57.7686 43.5971 57.974L43.7825 58.1386C43.7825 58.1386 43.8999 70.9961 43.9472 72.7688Z" fill="#0E0E0E"/>
<path opacity="0.4" d="M37.5403 86.6848C38.1561 86.8174 38.7767 86.9364 39.4049 86.9838C42.7503 87.2364 45.9376 86.278 49.218 85.575C49.7723 85.4563 50.6462 85.0351 50.9113 85.5362C51.1235 85.9372 51.1604 85.9418 50.8706 86.2908C49.7171 87.6794 47.2839 88.1015 45.511 88.4413C42.176 89.0804 38.7335 90.0608 35.4484 89.2015C34.2663 88.8923 33.1585 88.3543 32.0633 87.8124C30.8531 87.2137 29.6387 86.6007 28.5717 85.7735C27.9845 85.3182 27.7625 84.3336 28.6327 84.0192C29.3986 83.7424 30.5488 84.5279 31.2305 84.7926C33.2796 85.5882 35.3915 86.2218 37.5403 86.6848Z" fill="#0E0E0E"/>
<path d="M51.3083 86.2449C51.2774 85.6188 51.1932 85.1375 51.1194 84.8183C51.1133 84.6235 51.0545 84.4427 50.9543 84.2906C50.9519 84.2866 50.9494 84.2827 50.9469 84.2788C50.8023 84.0659 50.5767 83.9114 50.3044 83.8576L47.1495 83.2336C46.8968 83.1838 46.6511 83.348 46.6012 83.6009C46.5511 83.8537 46.7155 84.0992 46.9684 84.1492L50.1234 84.7732C50.1298 84.7745 50.1374 84.7761 50.145 84.7789C50.1542 84.8096 50.1652 84.8488 50.1776 84.8961C50.1642 84.9208 50.1399 84.9261 50.1232 84.9294L40.229 86.8721C40.2215 86.8735 39.4721 87.0162 38.4408 86.9015C35.2129 86.2058 31.2827 84.4526 30.0212 83.8677C32.1498 83.4257 36.9406 82.4518 39.0501 82.1918C39.33 82.1574 39.6088 82.1828 39.8791 82.2675C41.6895 82.8348 45.2249 83.6228 45.3745 83.656C45.6255 83.7119 45.8753 83.5533 45.9313 83.3018C45.9872 83.0502 45.8286 82.8009 45.577 82.745C45.5408 82.7369 41.9307 81.9323 40.1583 81.3769C39.7601 81.2521 39.3488 81.2145 38.9359 81.2654C36.1549 81.6082 29.0742 83.1115 28.7741 83.1753C28.7233 83.1862 28.6774 83.2066 28.635 83.2317C28.516 83.2519 28.4049 83.3176 28.3304 83.4244C28.3085 83.4557 27.7961 84.2027 27.8756 85.157C27.9297 85.8066 28.0277 86.1048 28.2372 86.2575C28.2791 86.2879 28.3245 86.3115 28.372 86.3276L33.6564 88.7496L33.6806 88.7599C35.5922 89.5091 37.444 89.7475 39.0272 89.7475C41.587 89.7474 43.4444 89.1239 43.7153 89.0277L49.8072 87.5848C50.394 87.4892 51.3507 87.1038 51.3083 86.2449ZM49.6455 86.6655L49.6271 86.6683L43.4746 88.1257L43.4217 88.1415C43.3763 88.1581 38.8375 89.7725 34.0332 87.8956L28.8648 85.5268C28.8477 85.4478 28.8248 85.3094 28.8057 85.0796C28.7771 84.7371 28.8711 84.4274 28.9596 84.2207C28.9946 84.3443 29.0784 84.4534 29.203 84.5139C29.408 84.6134 34.27 86.9625 38.2677 87.8189L38.3124 87.8263C38.6591 87.8659 38.977 87.8802 39.2549 87.8802C39.9105 87.8802 40.3436 87.8007 40.4084 87.7881L50.3031 85.8452C50.316 85.8427 50.3283 85.839 50.341 85.8361C50.3556 85.9763 50.368 86.1272 50.3761 86.2909C50.3828 86.4261 49.9724 86.6131 49.6455 86.6655Z" fill="#0E0E0E"/>
<path opacity="0.4" d="M22.9528 69.9824C20.4256 70.2154 17.9037 70.5068 15.3899 70.8562C15.1309 70.8922 14.8266 70.9629 14.731 71.2063C14.6378 71.4433 14.8014 71.6972 14.9564 71.8993C15.5295 72.6466 16.1026 73.394 16.6757 74.1413C17.146 74.7546 17.6175 75.3692 18.15 75.9293C19.7067 77.5667 21.7555 78.7081 23.1567 80.4804C22.4794 80.8421 21.6995 80.9515 20.9367 81.0384C20.3638 81.1037 19.7742 81.1584 19.2181 81.0061C18.6819 80.8593 18.2165 80.5308 17.7657 80.2054C16.2718 79.1272 14.7735 77.988 13.7356 76.4658C13.2831 75.8022 12.9274 75.0784 12.5734 74.3574C12.089 73.3712 11.6046 72.3849 11.1203 71.3986C10.9598 71.0718 10.7948 70.7133 10.8703 70.3571C10.9814 69.833 11.5461 69.5568 12.0494 69.3733C13.723 68.7631 15.4637 68.3395 17.2285 68.0967C18.1608 67.9684 19.1231 67.8921 20.0323 68.1352C20.9415 68.3782 21.798 68.9946 22.104 69.8846C21.9689 69.8553 21.8337 69.826 21.6986 69.7967" fill="#0E0E0E"/>
<path d="M29.3223 78.8818L24.535 79.7639C23.7666 79.9051 22.8914 79.6478 22.133 79.0572C20.008 77.4025 18.4521 75.7405 18.4366 75.7239C18.261 75.5355 17.9657 75.5249 17.7771 75.7006C17.5886 75.8763 17.5781 76.1715 17.7537 76.3601C17.8188 76.4299 19.3729 78.091 21.5596 79.7937C21.7566 79.947 21.9609 80.0826 22.1701 80.1997L20.5526 80.4977C19.4351 80.7032 18.3965 79.8932 18.3873 79.8859L18.3778 79.8785C14.9581 77.2762 12.394 73.3118 11.4181 71.3795C10.979 70.5101 11.0446 70.1041 11.1228 69.9395C11.2089 69.7583 11.3901 69.7115 11.4089 69.7071L17.4189 68.5997C18.7196 68.3602 19.8535 68.6709 20.0523 68.7307L21.5462 69.5182L16.772 70.1996C16.5168 70.236 16.3396 70.4724 16.376 70.7275C16.4124 70.9827 16.6493 71.1601 16.9039 71.1236L22.0027 70.3958L22.1781 70.3954C23.2583 70.391 23.7555 70.3886 24.9692 71.5949C25.2005 71.9211 25.404 72.2276 25.601 72.5243C26.3379 73.6345 26.9745 74.5934 28.5179 75.7645C28.6023 75.8285 28.7014 75.8594 28.7997 75.8594C28.9407 75.8594 29.08 75.7957 29.1718 75.6748C29.3276 75.4694 29.2874 75.1767 29.0821 75.0209C27.6646 73.9454 27.0971 73.0905 26.3786 72.0081C26.171 71.6955 25.9565 71.3722 25.7068 71.0216L25.6842 70.9899L25.6567 70.9624C24.8461 70.1518 24.232 69.778 23.6595 69.6062C23.6258 69.571 23.5876 69.5393 23.5422 69.5154L20.4501 67.8853L20.4172 67.8679L20.3819 67.8561C20.3231 67.8362 18.9241 67.3734 17.2497 67.6819L11.2436 68.7886C11.178 68.7998 10.594 68.915 10.2941 69.5097C10.007 70.079 10.1049 70.8496 10.585 71.8002C11.8413 74.2877 14.4868 78.0891 17.8089 80.6184C17.9056 80.6946 18.914 81.4647 20.1785 81.4646C20.3551 81.4646 20.5369 81.4496 20.7217 81.4155L24.7038 80.6818C24.7039 80.6818 24.704 80.6818 24.7041 80.6818L29.4915 79.7997C29.7449 79.753 29.9126 79.5097 29.8658 79.2562C29.8191 79.0027 29.5756 78.835 29.3223 78.8818Z" fill="#0E0E0E"/>
<path d="M15.454 71.3623C15.7085 71.3623 15.9166 71.1579 15.9205 70.9025C15.9243 70.6449 15.7185 70.4328 15.4608 70.429C15.2934 70.4238 14.444 70.4434 14.1431 71.0266C13.9581 71.385 14.0397 71.806 14.3856 72.2776C15.2134 73.4062 16.8606 75.3608 16.9303 75.4435C17.0226 75.553 17.1545 75.6093 17.2873 75.6093C17.3935 75.6093 17.5004 75.5732 17.5879 75.4994C17.7849 75.3332 17.8099 75.0388 17.6438 74.8418C17.6269 74.8218 15.9472 72.8285 15.1382 71.7257C15.0317 71.5804 14.9977 71.4926 14.9868 71.4515C15.0684 71.4045 15.2766 71.3622 15.4417 71.3622C15.4458 71.3621 15.4499 71.3623 15.454 71.3623Z" fill="#0E0E0E"/>
<path d="M32.2151 77.4143C31.0147 76.5604 30.014 75.7816 30.0041 75.7738C29.8008 75.6156 29.5075 75.6518 29.3491 75.8551C29.1907 76.0584 29.2271 76.3516 29.4303 76.51C29.4405 76.5179 30.4563 77.3086 31.6742 78.1748C31.8037 78.267 31.887 78.3401 31.9399 78.394C31.913 78.4025 31.8853 78.4097 31.8601 78.4143L30.7173 78.6249C30.4638 78.6716 30.2962 78.9149 30.3429 79.1684C30.3844 79.3933 30.5806 79.5506 30.8013 79.5506C30.8294 79.5506 30.8578 79.548 30.8864 79.5427L32.023 79.3333C32.1536 79.311 32.8116 79.1723 32.9367 78.6248C33.0738 78.025 32.4275 77.5653 32.2151 77.4143Z" fill="#0E0E0E"/>
<path opacity="0.4" d="M17.8765 49.6144C17.5673 50.152 16.8335 50.2175 16.2138 50.2385C14.4096 50.2996 12.6106 50.5166 10.8436 50.8861C10.0336 51.0555 9.13672 51.3264 8.74958 52.0579C8.50203 52.5255 8.5219 53.0842 8.55809 53.6121C8.72904 56.1055 9.12678 58.5833 9.7448 61.0049C9.79564 61.2041 9.84708 61.4198 9.76898 61.61C9.63372 61.9393 9.20643 62.0093 8.85096 62.0296C8.49905 62.0498 8.14707 62.0687 7.79503 62.0864C7.6042 62.096 7.39402 62.0992 7.24594 61.9785C7.14446 61.8958 7.09145 61.7691 7.04338 61.6473C5.97469 58.9398 5.45572 56.0167 5.52711 53.1069C5.55141 52.1166 5.67342 51.0536 6.32726 50.3094C6.7825 49.7912 7.43696 49.4988 8.07925 49.2474C10.0794 48.4646 12.1759 47.9303 14.3064 47.6581C15.2335 47.5396 18.9816 47.6937 17.8765 49.6144Z" fill="#0E0E0E"/>
<path d="M20.0685 59.063C19.7882 57.4652 19.6702 55.6411 19.669 55.6229C19.6528 55.3657 19.4319 55.1704 19.1737 55.1867C18.9165 55.2031 18.7212 55.4248 18.7376 55.682C18.7424 55.7585 18.8598 57.5745 19.1492 59.2241C19.2 59.5141 19.0073 59.793 18.7198 59.846L12.3227 61.0246C12.0692 61.0713 11.9016 61.3147 11.9483 61.5681C11.9898 61.793 12.186 61.9503 12.4067 61.9503C12.4348 61.9503 12.4632 61.9478 12.4918 61.9425L18.8889 60.7639C19.6783 60.6184 20.2074 59.8554 20.0685 59.063Z" fill="#0E0E0E"/>
<path d="M11.4148 61.8623C11.4217 61.8489 11.4281 61.8354 11.4337 61.8213C11.4392 61.8075 11.4438 61.7936 11.448 61.7793C11.4522 61.7648 11.4559 61.7502 11.4587 61.7353C11.4616 61.7202 11.4634 61.7051 11.4647 61.6898C11.466 61.6748 11.4668 61.6599 11.4666 61.6447C11.4665 61.6288 11.4652 61.6129 11.4633 61.5968C11.4623 61.588 11.463 61.5793 11.4615 61.5704C11.4603 61.5634 11.4574 61.5571 11.4559 61.5502C11.4545 61.5435 11.4545 61.5368 11.4527 61.53C11.4505 61.5215 11.4463 61.5142 11.4437 61.5059C11.4386 61.4901 11.433 61.4747 11.4264 61.4597C11.4204 61.4463 11.4137 61.4335 11.4066 61.4208C11.3987 61.4069 11.3905 61.3935 11.3814 61.3806C11.3729 61.3686 11.3639 61.3573 11.3544 61.3463C11.3443 61.3346 11.334 61.3234 11.3228 61.3128C11.3122 61.3027 11.3012 61.2933 11.2898 61.2842C11.2778 61.2748 11.2657 61.266 11.2528 61.2577C11.2405 61.2498 11.2278 61.2427 11.2148 61.2359C11.2014 61.229 11.1879 61.2227 11.1738 61.217C11.1599 61.2114 11.1457 61.2068 11.1312 61.2025C11.117 61.1984 11.1029 61.1948 11.0883 61.1921C11.0728 61.1891 11.0572 61.1872 11.0413 61.1859C11.0269 61.1846 11.0124 61.1839 10.9977 61.184C10.9815 61.1842 10.9653 61.1855 10.9489 61.1874C10.9402 61.1884 10.9316 61.1877 10.9228 61.1892C10.9215 61.1896 10.7996 61.1892 10.6591 61.0992C10.3599 60.9074 10.1313 60.4273 10.0153 59.7473C9.69032 57.8433 9.32287 55.4117 9.36584 53.4926C9.37163 53.2349 9.16742 53.0214 8.90975 53.0157C8.6503 53.0099 8.43857 53.2141 8.43278 53.4717C8.38826 55.4586 8.74268 57.8385 9.09523 59.9043C9.20858 60.5686 9.41186 61.0905 9.70172 61.4643C9.02282 61.5961 8.25932 61.7061 7.81887 61.6548C7.51609 61.6194 7.28599 61.4817 7.13491 61.2458C7.06806 61.1413 7.02445 61.0164 7.00526 60.8746C6.56753 57.6319 6.14808 53.3443 6.40657 51.9322C6.68721 50.399 8.29789 49.5563 8.78497 49.3345C8.85178 49.3041 8.92319 49.2812 8.99734 49.2664L14.9125 48.0895C15.3755 47.9973 15.8822 48.0337 16.009 48.1264L16.0351 48.1442C16.4464 48.4041 16.9729 48.7541 17.4152 49.0702L9.98992 50.4383C9.08543 50.6049 8.429 51.3934 8.429 52.3131V52.5027C8.429 52.7604 8.63795 52.9694 8.89567 52.9694C9.15338 52.9694 9.36233 52.7604 9.36233 52.5027V52.3131C9.36233 51.8437 9.69738 51.4412 10.159 51.3562L17.7919 49.9498C18.0984 49.8933 18.4045 49.9827 18.6322 50.1949C18.8593 50.4065 18.9697 50.7046 18.9353 51.0128C18.7805 52.3956 18.7138 53.4828 18.737 54.2442C18.7447 54.497 18.952 54.6966 19.2032 54.6966C19.208 54.6966 19.2129 54.6966 19.2177 54.6964C19.4753 54.6885 19.6778 54.4733 19.6699 54.2157C19.6484 53.5085 19.7151 52.4368 19.8628 51.1166C19.9305 50.5118 19.7386 49.912 19.2932 49.4971C19.2337 49.4416 19.0381 49.2308 18.9936 49.1751C18.59 48.6701 16.9093 47.5928 16.545 47.3623C15.9532 46.9465 14.8546 47.1495 14.7304 47.1742L8.81528 48.351C8.67063 48.3798 8.53022 48.4249 8.39806 48.4852C7.80707 48.7543 5.85058 49.7862 5.48846 51.7642C5.12975 53.7239 5.91853 59.8011 6.08031 60.9996C6.11782 61.2771 6.20819 61.5292 6.34887 61.7491C6.56147 62.0811 6.97026 62.4952 7.71032 62.5818C7.81997 62.5946 7.94032 62.6005 8.06866 62.6005C9.19112 62.6004 10.9084 62.1564 11.1207 62.1003C11.1291 62.0981 11.1364 62.094 11.1446 62.0914C11.1605 62.0862 11.176 62.0807 11.191 62.074C11.2045 62.068 11.2173 62.0613 11.23 62.0541C11.2438 62.0464 11.2571 62.0382 11.2699 62.0292C11.2821 62.0206 11.2935 62.0114 11.3048 62.0017C11.3162 61.9918 11.3272 61.9817 11.3376 61.9708C11.3479 61.96 11.3575 61.9488 11.3667 61.9371C11.376 61.9253 11.3847 61.9133 11.3928 61.9007C11.4008 61.8882 11.408 61.8755 11.4148 61.8623Z" fill="#0E0E0E"/>
<path opacity="0.4" d="M14.2102 34.8632C14.2143 34.9956 14.0694 35.1022 14.0906 35.233C14.1191 35.4085 14.2976 35.5122 14.4571 35.5908C16.9165 36.8023 19.4236 37.9171 21.9705 38.9318C21.5659 39.6774 20.6373 40.012 19.7908 39.9568C18.9443 39.9016 18.155 39.5303 17.3892 39.1654C15.6232 38.3239 13.8572 37.4824 12.0912 36.6409C11.6819 36.4459 11.2399 36.2181 11.0604 35.8018C10.7955 35.1875 11.224 34.5117 11.6309 33.9807C12.3695 33.0167 16.9383 26.4982 18.1315 26.89C20.868 27.7886 14.152 32.9666 14.2102 34.8632Z" fill="#0E0E0E"/>
<path d="M28.7206 31.7985C28.6452 31.3994 28.3911 31.0712 28.0236 30.8983L21.0352 27.609C20.7838 27.4687 18.339 26.4717 18.339 26.4717C17.9579 26.2716 17.0949 26.1317 16.4172 26.972C15.7446 27.6717 14.1955 29.5405 12.8746 31.2463C10.1734 34.7346 10.2515 35.0948 10.3084 35.3577C10.3092 35.361 10.3103 35.3641 10.3111 35.3674C10.2633 35.5729 10.359 35.7917 10.5559 35.8901L18.0722 39.6454C18.0878 39.6533 19.557 40.3681 20.3578 40.3681C20.4177 40.3681 20.4739 40.3641 20.5255 40.3555L20.5667 40.3486C20.5667 40.3486 23.1243 39.3846 23.1774 39.2898C23.5251 39.1213 23.8353 38.8666 24.0712 38.5328C25.3867 36.6712 27.1058 34.5804 27.123 34.5594C27.2869 34.3605 27.2584 34.0664 27.0594 33.9026C26.8604 33.7387 26.5664 33.7672 26.4025 33.9662C26.3851 33.9873 24.6447 36.1039 23.309 37.9942C22.8968 38.5775 22.1104 38.7644 21.4799 38.4291L14.051 34.4791L14.0461 34.4771C14.0289 34.4682 14.0106 34.4619 13.9924 34.4552C13.9817 34.4512 13.9713 34.4459 13.9604 34.4428C13.9444 34.4382 13.9278 34.4363 13.9114 34.4334C13.898 34.4311 13.8847 34.4274 13.8713 34.4262C13.8574 34.4251 13.8433 34.4265 13.8293 34.4266C13.813 34.4267 13.7968 34.4257 13.7807 34.4275C13.7689 34.4289 13.7571 34.4325 13.7453 34.4347C13.7269 34.4383 13.7084 34.4413 13.6905 34.447L13.6851 34.4482C12.7861 34.7462 11.831 34.963 11.3497 34.9916C12.0931 33.6308 15.8058 28.9469 17.1038 27.6046L17.1345 27.5693C17.4789 27.1332 17.8183 27.2551 17.9061 27.2986L18.7227 27.6734C18.5279 27.7964 18.3484 27.9492 18.1939 28.134C17.0957 29.4476 15.1048 31.8994 14.1102 33.5605C13.9777 33.7817 14.0497 34.0683 14.2708 34.2006C14.3459 34.2456 14.4285 34.267 14.5101 34.267C14.6688 34.267 14.8235 34.1861 14.9109 34.04C15.8728 32.4336 17.8293 30.0253 18.91 28.7326C19.3231 28.2383 20.0299 28.1109 20.5905 28.4296L20.6061 28.4385L27.6261 31.7428C27.7197 31.7868 27.7844 31.8703 27.8035 31.9719C27.8227 32.0735 27.793 32.1748 27.722 32.2499L27.187 32.816C27.01 33.0033 27.0183 33.2986 27.2056 33.4757C27.3929 33.6527 27.6883 33.6444 27.8653 33.4571L28.4003 32.8911C28.6793 32.5959 28.7961 32.1977 28.7206 31.7985ZM20.3431 39.4373C20.0514 39.4472 19.0647 39.0979 18.4894 38.8105L12.4081 35.7722C12.8929 35.6683 13.3856 35.5252 13.7879 35.3962L20.9673 39.2136L20.3431 39.4373Z" fill="#0E0E0E"/>
<path opacity="0.4" d="M28.9291 18.5495C28.7433 18.7044 28.5512 18.8742 28.478 19.1048C28.3654 19.4596 28.5665 19.8308 28.7643 20.1462C30.0414 22.1825 31.4992 24.1054 33.115 25.8849C32.6193 26.2424 31.9233 26.2117 31.367 25.9586C30.8108 25.7055 30.3655 25.2637 29.9442 24.821C28.3439 23.1396 26.3011 21.7151 25.0375 19.7679C24.9355 19.6107 25.4288 19.023 25.4751 18.8414C25.5102 18.7041 25.6244 18.6035 25.7327 18.5121C27.4081 17.0966 29.1077 15.6706 31.0352 14.6058C33.0451 13.4955 34.6757 12.8477 36.7862 13.9692C33.9913 15.306 31.3411 16.5375 28.9291 18.5495Z" fill="#0E0E0E"/>
<path d="M32.6225 15.994C32.7401 16.2234 33.0214 16.3139 33.2507 16.1963L37.2396 14.1505C37.3897 14.1551 37.7203 14.2247 37.9292 14.7152L38.5398 16.5213C38.6056 16.7159 38.7872 16.8387 38.9818 16.8387C39.0314 16.8387 39.0818 16.8307 39.1314 16.814C39.3755 16.7314 39.5065 16.4666 39.424 16.2224L38.808 14.4005L38.797 14.3712C38.408 13.4331 37.6441 13.2092 37.1905 13.2176L35.7591 12.6498C35.0932 12.3858 34.3479 12.4254 33.7144 12.7588C31.9457 13.6894 27.6291 15.9966 25.7484 17.3167C24.8325 17.9596 24.4661 19.1267 24.8573 20.155C24.8721 20.1939 24.888 20.2333 24.905 20.2734C25.5068 21.6889 28.692 24.6108 29.0992 24.9808C29.5577 25.4422 31.0717 26.9005 31.9263 26.9477C31.9677 26.9501 32.0103 26.9512 32.054 26.9512C32.8673 26.9511 34.0372 26.5732 34.1744 26.5279C34.198 26.5201 34.2195 26.5092 34.2409 26.4983C34.6096 26.4832 34.9891 26.3709 35.3573 26.105C36.6852 25.1457 37.3749 24.6723 37.3817 24.6677C37.5942 24.5219 37.6484 24.2315 37.5027 24.0189C37.3569 23.8063 37.0666 23.7522 36.854 23.8979C36.8471 23.9026 36.1494 24.3814 34.8107 25.3484C33.8337 26.0544 32.4939 24.7741 32.4042 24.6865C32.248 24.5151 29.7577 21.7772 28.9682 20.6178C28.4601 19.8715 28.4225 19.3333 28.8566 19.0182C29.1963 18.7717 31.3097 17.3976 32.3797 16.7055C32.5961 16.5655 32.6581 16.2766 32.5181 16.0602C32.3781 15.8438 32.0892 15.7818 31.8728 15.9218C31.7457 16.0041 28.753 17.9402 28.3083 18.2629C27.9829 18.4991 27.0133 19.4049 28.1968 21.1432C29.0451 22.389 31.6137 25.2048 31.7226 25.3241L31.7348 25.3369C31.7661 25.3687 32.0777 25.6794 32.5446 25.9719C32.334 26.0054 32.1353 26.0244 31.9778 26.0159C31.6756 25.9991 30.636 25.2042 29.7531 24.3147L29.7354 24.2978C28.782 23.4325 26.2099 20.9571 25.7641 19.9085C25.7519 19.8797 25.7404 19.8513 25.7297 19.8231C25.4905 19.1944 25.7187 18.4779 26.2846 18.0806C28.1212 16.7914 32.3962 14.5071 34.1489 13.5848C34.5412 13.3784 35.0027 13.3538 35.4149 13.5174L35.9867 13.7442L32.8248 15.3658C32.5954 15.4834 32.5049 15.7647 32.6225 15.994Z" fill="#0E0E0E"/>
<path d="M40.9763 20.522L39.9245 17.4111C39.8419 17.167 39.577 17.0359 39.3329 17.1185C39.0888 17.201 38.9578 17.4659 39.0403 17.7101L40.095 20.8295L40.1006 20.8451C40.1284 20.9204 40.3568 21.5921 39.8174 21.9635C38.6646 22.7574 37.962 23.175 37.955 23.1791C37.7333 23.3105 37.6599 23.5967 37.7913 23.8184C37.8785 23.9656 38.0338 24.0474 38.1932 24.0474C38.274 24.0474 38.3559 24.0263 38.4305 23.9822C38.4599 23.9648 39.1645 23.5463 40.3467 22.7323C41.2674 22.0984 41.1628 21.0157 40.9763 20.522Z" fill="#0E0E0E"/>
<path opacity="0.4" d="M53.975 9.26027C53.7008 9.37414 53.4389 9.54368 53.2799 9.79439C53.1488 10.001 53.0969 10.2466 53.053 10.4873C52.6871 12.4889 52.7105 14.561 53.1216 16.5539C52.2931 16.325 51.4768 16.052 50.6773 15.7367C50.4328 15.6402 50.1717 15.5241 50.0451 15.2937C49.949 15.1187 49.9489 14.9088 49.9517 14.7091C49.9728 13.213 50.0214 11.7174 50.0974 10.2231C50.1143 9.89057 50.148 9.5232 50.3908 9.29534C50.5688 9.12827 50.8219 9.07422 51.0617 9.02879C52.1873 8.81559 56.5294 7.56442 57.1756 8.81557C56.2124 9.18239 54.9912 8.83817 53.975 9.26027Z" fill="#0E0E0E"/>
<path d="M59.694 8.36207C59.6665 8.18945 59.5521 8.0351 59.378 7.96551L58.3023 7.53549C58.1285 7.46603 57.9461 7.43614 57.7595 7.44589C57.4053 7.4649 55.5459 7.56857 53.7242 7.74499C50.018 8.10392 49.752 8.43842 49.576 8.65977C49.4747 8.78724 49.4266 8.93904 49.4376 9.09294C49.4367 9.13774 49.4335 9.23581 49.4292 9.37549C49.2837 14.0573 49.4399 15.0098 49.6302 15.3417C49.9898 15.9687 51.9838 16.8376 53.1404 17.2998C53.2029 17.3248 53.2673 17.3366 53.3307 17.3366C53.386 17.3366 53.671 17.3437 53.7627 17.3437C53.846 17.3437 53.93 17.3343 54.0132 17.3152C54.2895 17.2516 54.462 16.9762 54.3986 16.6999C54.335 16.4236 54.0597 16.2509 53.7833 16.3146C53.7575 16.3205 53.7341 16.3151 53.7134 16.2987C53.6928 16.2823 53.6824 16.2606 53.6824 16.2343V13.9704C53.6824 13.7594 53.555 13.5783 53.373 13.4994C53.555 13.4205 53.6824 13.2394 53.6824 13.0284V10.1781C53.6824 9.92738 53.8778 9.71528 54.1272 9.69523C55.4346 9.59005 56.8635 9.42038 57.6379 9.42038C58.5703 9.05659 58.0192 8.64591 57.7171 8.47648C57.7497 8.4747 57.7819 8.47285 57.8146 8.4711C57.8507 8.46882 57.8869 8.47511 57.9212 8.48878L58.9969 8.91881C59.0251 8.93006 59.0537 8.93809 59.0824 8.94413V14.9604C59.0824 15.193 58.917 15.3952 58.689 15.4413L55.4787 16.0906C55.2009 16.1468 55.0211 16.4176 55.0774 16.6955C55.1266 16.939 55.3407 17.1072 55.58 17.1072C55.6137 17.1072 55.6479 17.1038 55.6823 17.0969L58.8926 16.4476C59.5975 16.305 60.1091 15.6796 60.1091 14.9604V8.86576C60.1091 8.61589 59.9305 8.40795 59.694 8.36207ZM52.6557 10.1781V13.0284C52.6557 13.2394 52.7831 13.4205 52.9651 13.4994C52.7831 13.5783 52.6557 13.7594 52.6557 13.9704V15.982C51.6551 15.5406 50.7164 15.0564 50.5244 14.8328C50.4541 14.622 50.323 13.6698 50.4554 9.40739C50.4568 9.36073 50.4581 9.31994 50.4592 9.28416C50.8793 9.12574 52.0211 8.94925 53.5731 8.79107C53.0335 9.02457 52.6557 9.56345 52.6557 10.1781Z" fill="#0E0E0E"/>
<path opacity="0.4" d="M69.2577 9.40162C69.4351 9.73212 69.4603 10.1208 69.4709 10.4957C69.5031 11.6291 69.4363 12.7653 69.2716 13.8871C69.2449 14.0689 69.2004 14.2738 69.0422 14.3675C68.8499 14.4814 68.6079 14.367 68.4152 14.2539C67.9912 14.0049 67.5672 13.7559 67.1431 13.507C66.9609 13.4 66.7711 13.2856 66.6632 13.1039C66.567 12.942 66.5484 12.7468 66.5362 12.5588C66.4752 11.6165 66.2633 9.57385 66.9914 8.82812C67.6375 8.16633 68.8658 8.67128 69.2577 9.40162Z" fill="#0E0E0E"/>
<path d="M71.8841 15.4503C71.8807 15.4503 71.8773 15.4503 71.8737 15.4503L70.1586 15.4163C69.5987 15.4051 69.1432 14.9405 69.1432 14.3805V9.61145C69.1432 9.31459 69.2708 9.03167 69.4931 8.83512C69.7154 8.63861 70.0121 8.54682 70.3062 8.58328C70.6828 8.62986 71.2506 8.70441 71.8165 8.79501C72.0965 8.83981 72.2871 9.10309 72.2422 9.383C72.1975 9.663 71.934 9.85408 71.6542 9.80874C71.1033 9.72055 70.5485 9.64773 70.1802 9.6022L70.1699 9.61145V14.3805C70.1699 14.3856 70.1739 14.3897 70.179 14.3898L71.8941 14.4238C72.1775 14.4294 72.4028 14.6638 72.3972 14.9472C72.3916 15.2272 72.1629 15.4503 71.8841 15.4503Z" fill="#0E0E0E"/>
<path d="M74.0462 15.5362C74.0186 15.5362 73.991 15.5354 73.9633 15.5337L72.705 15.4573C72.422 15.4401 72.2065 15.1968 72.2236 14.9138C72.2409 14.6308 72.4846 14.4155 72.7671 14.4326L74.0255 14.509C74.1261 14.5151 74.2206 14.4806 74.2934 14.412C74.3663 14.3434 74.4064 14.2505 74.4064 14.1504V10.5999C74.4064 10.4277 74.2837 10.2793 74.1145 10.2471L72.6399 9.96596C72.3615 9.91287 72.1787 9.64403 72.2318 9.36558C72.2849 9.08704 72.5535 8.90429 72.8322 8.95743L74.3068 9.23857C74.9594 9.36298 75.4331 9.93552 75.4331 10.5999V14.1504C75.4331 14.531 75.2741 14.8988 74.9971 15.1596C74.7401 15.4014 74.3975 15.5362 74.0462 15.5362Z" fill="#0E0E0E"/>
<path d="M70.0373 15.4063C69.9645 15.4063 69.8906 15.3907 69.8202 15.3578L66.8797 13.9824C66.5047 13.8071 66.2623 13.4263 66.2623 13.0123V8.4613C66.2623 8.15532 66.3936 7.86334 66.6224 7.66026C66.8512 7.45719 67.1565 7.36103 67.4605 7.39785L71.2739 7.85372C71.3863 7.86716 71.4954 7.89815 71.598 7.94582L74.7399 9.40416C74.997 9.52351 75.1087 9.82876 74.9894 10.0859C74.8699 10.3431 74.5646 10.4548 74.3076 10.3354L71.1654 8.87692C71.161 8.87492 71.1567 8.87369 71.152 8.8731L67.3386 8.41723C67.3337 8.41677 67.319 8.41477 67.3039 8.42812C67.289 8.44134 67.289 8.45638 67.289 8.4613V13.0123C67.289 13.0294 67.299 13.0452 67.3145 13.0524L70.2551 14.4278C70.512 14.548 70.6227 14.8535 70.5027 15.1103C70.4155 15.2968 70.2304 15.4062 70.0373 15.4063Z" fill="#0E0E0E"/>
<path d="M69.8394 9.72787C69.7678 9.72787 69.6952 9.71283 69.6258 9.68107L66.8823 8.42367C66.6246 8.30554 66.5114 8.00084 66.6296 7.74313C66.7479 7.48533 67.0526 7.3724 67.3101 7.49034L70.0536 8.74774C70.3113 8.86586 70.4245 9.17056 70.3064 9.42827C70.22 9.61672 70.0339 9.72787 69.8394 9.72787Z" fill="#0E0E0E"/>
</svg>
