<svg width="112" height="112" viewBox="0 0 112 112" fill="none" xmlns="http://www.w3.org/2000/svg">
<path opacity="0.4" d="M42.0981 102.241C42.0981 102.241 35.0302 97.9042 40.6937 98.8481C46.3572 99.792 62.3426 100.679 74.0741 93.8051C85.8057 86.9311 89.0307 76.4956 91.3406 70.3361C93.6505 64.1766 96.6671 52.0112 96.6671 52.0112C97.7449 52.0269 99.5125 54.0703 101.301 55.2535C102.694 56.1747 101.111 58.9346 101.301 60.1159C101.736 62.8143 97.6786 75.2371 93.446 82.0488C86.6631 92.9646 81.7847 102.295 65.3458 104.66C48.907 107.026 44.0352 103.302 42.0981 102.241Z" fill="#0E0E0E"/>
<path opacity="0.4" d="M43.8497 103.758C43.5633 103.033 42.7252 102.737 42.0366 102.372C40.9283 101.783 40.0502 100.847 39.0346 100.111C38.9556 100.053 38.8651 99.9943 38.7684 100.008C38.6603 100.023 38.5863 100.122 38.5306 100.216C38.0555 101.018 38.0157 102.062 38.4285 102.898C38.8937 103.84 39.833 104.439 40.7276 104.99C41.2918 105.338 42.5495 106.498 43.2662 106.159C43.7102 105.948 44.0089 104.166 43.8497 103.758Z" fill="#0E0E0E"/>
<path d="M93.6021 81.4011C93.1668 81.2346 92.6784 81.4527 92.5118 81.8882C89.9582 88.566 85.2574 92.2444 85.1988 92.2897C84.8291 92.5733 84.7591 93.103 85.0425 93.473C85.2087 93.69 85.4597 93.8039 85.7134 93.8039C85.8926 93.8039 86.0731 93.7471 86.2263 93.6298C86.4344 93.4704 91.354 89.644 94.0892 82.4914C94.2558 82.0559 94.0377 81.5677 93.6021 81.4011Z" fill="#0E0E0E"/>
<path d="M102.944 52.1191C101.654 50.9828 99.9209 50.5434 97.7912 50.8136C97.7079 50.8241 97.6303 50.8492 97.5593 50.8847C97.4834 50.8622 97.4075 50.8429 97.3318 50.8306C96.8214 50.7479 96.3492 50.8892 95.9659 51.239C95.4093 51.7471 95.2511 52.7789 94.9357 54.8344C94.1102 60.2164 92.3922 71.4153 81.2684 86.2851C72.1175 98.5173 51.3761 98.3861 42.52 98.3307C39.4653 98.3111 38.6805 98.3198 38.2552 98.6549C38.2546 98.6553 38.254 98.6557 38.2534 98.6561C38.2471 98.661 38.2414 98.6661 38.2351 98.671C38.2329 98.6729 38.2305 98.6746 38.2283 98.6764C38.2282 98.6766 38.228 98.6767 38.2279 98.6769C36.1289 100.325 36.5247 102.483 37.0303 103.397L37.0671 103.456C38.5143 105.561 42.7451 107.676 43.588 108.084C43.8802 108.364 44.6699 108.845 47.1041 109.42C49.2919 109.936 51.966 110.303 54.6337 110.451C55.5251 110.501 56.4884 110.531 57.5113 110.531C62.6116 110.531 69.1733 109.771 75.4552 106.831C82.1089 103.717 87.0714 100.183 91.0724 95.7114C95.0316 91.2865 97.6616 86.3192 99.914 81.6104C102.543 76.1148 103.834 69.847 104.454 65.5568C105.125 60.9159 105.177 57.616 105.179 57.468C105.179 57.33 105.153 54.0661 102.944 52.1191ZM101.983 53.1969C102.745 53.8656 103.175 54.7749 103.419 55.583C103.323 55.5389 103.225 55.501 103.123 55.471C102.571 55.3087 102.058 55.3974 101.687 55.523C101.53 55.125 101.344 54.8821 101.183 54.7354C100.906 54.2528 100.218 53.1207 99.3696 52.1955C100.424 52.264 101.3 52.598 101.983 53.1969ZM42.9769 106.146C41.3618 105.268 39.1402 103.887 38.2816 102.674C38.1811 102.47 37.8145 101.593 38.3687 100.646C38.7998 101.126 39.5764 101.75 40.975 102.61C41.8385 103.141 42.6848 103.605 43.2021 103.88C43.0846 104.436 42.9445 105.3 42.9769 106.146ZM98.6115 80.9873C93.251 92.1939 87.8756 99.4231 74.843 105.523C67.7216 108.857 60.1897 109.27 55.1259 109.031C49.1379 108.747 45.1962 107.517 44.6192 107.067C44.3218 106.536 44.3887 105.38 44.566 104.42C46.4243 104.96 51.4747 106.23 57.8383 106.23C57.9321 106.23 58.027 106.23 58.1213 106.23C62.8583 106.202 67.3057 105.458 71.3401 104.02C76.3975 102.217 80.8113 99.315 84.459 95.3932C84.7305 95.1012 84.714 94.6445 84.422 94.3729C84.13 94.1014 83.6733 94.1179 83.4017 94.4099C75.5093 102.895 65.3181 104.736 58.1584 104.786C50.7143 104.84 44.8939 103.02 44.3141 102.832C44.0752 102.71 42.9769 102.139 41.8517 101.454C40.5091 100.637 39.8614 100.106 39.5513 99.7959C40.2205 99.76 41.3797 99.7672 42.5109 99.7744C46.972 99.8028 54.4385 99.8498 62.0823 98.3098C71.4528 96.4223 78.2969 92.6675 82.4244 87.15C87.3013 80.631 90.9714 73.9995 93.333 67.4398C95.3014 61.9724 95.9402 57.8086 96.3629 55.0534C96.5515 53.8237 96.7465 52.5524 96.9462 52.2993C96.9981 52.2534 97.0317 52.2446 97.1006 52.2558C97.8816 52.3821 99.2896 54.3067 99.9951 55.5675L100.095 55.7459L100.209 55.8095C100.409 56.077 102.393 59.429 94.4916 77.9885C94.3354 78.3553 94.5062 78.7794 94.8731 78.9355C95.2398 79.0918 95.6638 78.9209 95.82 78.554C99.5751 69.7336 101.647 63.1174 101.978 58.8892C102.049 57.9859 102.032 57.2695 101.963 56.6997C102.16 56.618 102.479 56.5284 102.792 56.6232C103.14 56.7288 103.437 57.0536 103.675 57.5885C103.69 57.6227 103.709 57.654 103.729 57.6837C103.675 59.4718 103.148 71.5042 98.6115 80.9873Z" fill="#0E0E0E"/>
<path d="M21.3438 84.9902L21.1686 84.6717C21.1341 84.6079 17.6987 78.4314 14.6386 71.3411C9.37653 59.1487 9.54562 54.7512 10.1155 53.4077C11.2139 50.8182 13.6187 49.4952 16.2373 49.188C14.7787 50.2704 14.464 51.9528 14.0175 53.9174C13.5472 55.9867 13.3921 58.3328 14.2246 60.7818C15.2919 63.9216 20.1631 75.1456 25.5643 85.8662C26.78 88.2793 28.774 90.9838 30.6449 92.3324C29.1999 91.8079 26.7779 90.7994 25.5006 89.7841C22.7891 87.6289 21.3557 85.0136 21.3438 84.9902Z" fill="#0E0E0E"/>
<path opacity="0.4" d="M22.2481 80.1036C20.6614 76.7637 19.1892 73.5154 17.9278 70.635L14.5445 69.7004C14.7423 70.1731 14.9478 70.6577 15.1634 71.1573C16.338 73.8786 17.568 76.4981 18.6401 78.6972C19.9304 79.2077 21.2754 79.7374 22.2481 80.1036Z" fill="white"/>
<path opacity="0.4" d="M15.401 64.6895C15.401 64.6895 13.2915 63.8923 12.1268 63.4321C12.4363 64.3495 13.3249 66.7133 13.3928 66.8526C14.6073 67.3331 15.9133 67.8319 16.8687 68.1941C16.4095 67.1202 15.4532 64.802 15.401 64.6895Z" fill="white"/>
<path d="M70.4877 42.8209C76.6628 36.7142 81.9674 31.3907 84.6126 28.9974C87.4273 26.4508 90.3908 25.5023 92.7802 25.6594C93.2469 25.69 93.6712 25.7718 94.0533 25.8836C93.2224 26.0657 92.5955 26.6192 91.7182 27.0021C88.0254 28.6137 84.7445 31.7885 82.6173 34.0215C81.1778 35.5327 79.4798 37.8184 76.9473 40.3088C72.1789 44.9979 65.3783 51.0281 57.7695 59.1708C51.8292 65.528 47.3929 69.6984 44.4915 71.8747C41.1235 74.4009 39.4818 73.984 38.4954 73.6987C38.4628 73.6893 38.1421 73.4185 38.0749 73.3819C40.2808 71.7955 43.8682 68.5658 48.238 64.4677C54.1665 58.9077 61.9129 51.3007 70.4877 42.8209Z" fill="#0E0E0E"/>
<path opacity="0.4" d="M57.2322 56.3557C55.2742 58.2602 53.4164 60.0535 51.6735 61.7169C52.3424 61.9865 53.102 62.295 53.8642 62.605C54.9805 61.4509 56.182 60.1848 57.4787 58.797C58.0692 58.1651 58.6523 57.5449 59.2294 56.9338L57.2322 56.3557Z" fill="white"/>
<path opacity="0.4" d="M62.1622 53.8545C64.0767 51.8615 65.9025 49.9934 67.6269 48.2497L65.9846 47.7744C64.0914 49.6411 62.2569 51.4453 60.4892 53.1763C61.0123 53.3874 61.5826 53.6189 62.1622 53.8545Z" fill="white"/>
<path d="M102.121 28.0165C100.851 26.8108 99.3997 26.0616 97.8056 25.7702C97.1847 25.1613 95.5333 23.8087 92.9604 23.622C89.982 23.4069 86.8177 24.7927 83.5564 27.7435C80.8777 30.1672 75.5299 35.4557 69.3377 41.5792C62.7264 48.1174 55.2328 55.5279 48.9019 61.521C42.2636 67.8052 38.8903 70.6325 37.199 71.8186C36.3754 70.6685 35.2211 68.6717 33.7004 65.2028C31.9794 61.2774 30.647 57.413 30.5998 57.2756C29.7099 54.6047 27.7727 51.0926 26.0688 49.8342C24.9248 48.9895 23.7249 48.4077 22.5307 48.0917C21.9656 47.86 17.5591 46.1608 13.585 47.7601C11.4139 48.6338 9.78907 50.3121 8.7556 52.7484C7.49872 55.7116 8.98115 62.0014 13.2876 71.9772C16.3241 79.0111 19.7261 85.3708 19.8866 85.6698C20.0114 85.9133 21.4292 88.5981 24.3832 90.9705C26.5993 92.7502 30.0392 94.6104 34.7356 94.6103C35.9994 94.6103 37.3545 94.4756 38.8008 94.1684L38.8002 94.1658C42.357 93.981 45.6798 92.7811 48.0011 91.7033C51.9348 89.8769 66.924 75.256 80.1488 62.3562C86.6531 56.0117 92.2706 50.5324 95.331 47.7997C100.879 42.8456 104.099 37.5149 104.165 33.1745C104.197 31.0992 103.49 29.3156 102.121 28.0165ZM70.7736 43.0312C76.9485 36.9248 82.2813 31.651 84.9264 29.2577C87.7411 26.7111 90.381 25.4998 92.7704 25.6559C93.237 25.6864 93.6613 25.7683 94.0433 25.8801C93.2124 26.0622 92.3568 26.3432 91.4794 26.7261C87.7866 28.3377 84.4759 31.3379 82.3489 33.5709C80.9096 35.0819 78.9095 37.0487 76.3772 39.5388C71.6088 44.228 65.0781 50.6501 57.4688 58.7934C51.5285 65.1505 47.5857 68.9559 44.6843 71.1322C41.3164 73.6584 39.7521 73.6552 38.7655 73.3697C38.7329 73.3603 38.6831 73.3414 38.6159 73.3048C43.8145 69.566 55.8784 57.7615 70.7736 43.0312ZM21.7029 84.7366L21.6901 84.7121C21.6558 84.6483 18.2229 78.2572 15.1625 71.1678C9.89538 58.9667 10.0654 54.89 10.6356 53.5459C11.734 50.9563 13.6151 49.4939 16.2337 49.1867C14.775 50.2692 13.7682 51.8771 13.3218 53.8417C12.8515 55.911 13.043 58.2992 13.8755 60.7481C14.9427 63.8875 19.7591 75.3525 25.1607 86.0737C26.3764 88.4867 27.9392 90.3878 29.8101 91.7364C28.3651 91.2119 27.0009 90.4429 25.7237 89.4277C23.0122 87.2724 21.7148 84.7599 21.7029 84.7366ZM93.9709 46.2765C90.8769 49.0392 85.2446 54.533 78.7229 60.8945C66.9213 72.406 50.7586 88.1716 47.1411 89.8512C44.7995 90.9385 41.6267 92.0657 38.3779 92.178L38.3764 92.1708C38.3611 92.174 38.346 92.1767 38.3307 92.1799C34.1238 92.3126 29.7956 90.7347 26.9844 85.1549C21.7026 74.6712 16.8313 63.0983 15.8089 60.0908C14.1897 55.3276 15.6103 52.1703 17.4797 50.8038C18.3426 50.1731 19.3575 49.8619 20.4374 49.8619C21.8652 49.8619 23.4061 50.4065 24.8557 51.4769C25.8979 52.2466 27.7182 55.0842 28.6638 57.9253L28.6666 57.9336C28.6802 57.9734 30.0486 61.9577 31.8252 66.0116C34.0117 71.001 35.5732 73.3041 36.7075 74.3947L36.7241 74.4382C36.7305 74.4358 36.7377 74.4324 36.7441 74.4299C37.3374 74.9913 37.8126 75.2199 38.1983 75.3315C40.3401 75.9506 42.7183 75.1594 45.9096 72.7658C48.9105 70.5148 52.9357 66.6356 58.9608 60.1876C66.5407 52.0758 73.0536 45.6713 77.809 40.9948C80.3546 38.4917 82.3651 36.5145 83.8275 34.9793C85.4626 33.2626 88.7373 30.1509 92.2962 28.5977C95.7401 27.0947 98.4939 27.3893 100.715 29.4976C101.673 30.4062 102.146 31.6328 102.123 33.1434C102.067 36.8593 99.0191 41.7688 93.9709 46.2765Z" fill="#0E0E0E"/>
<path opacity="0.4" d="M8.88544 43.7057C8.88544 43.7057 8.00842 40.3488 8.82819 38.1565C9.0343 37.6054 12.0087 38.7651 12.3994 37.9001C15.2304 31.6331 21.456 19.2645 32.7846 12.9313C53.1232 1.5611 65.4718 4.87196 67.7002 5.0154C69.9287 5.15885 85.088 8.80673 87.2327 10.4944C89.3773 12.182 93.757 17.4797 85.4663 15.9365C85.4663 15.9365 69.4496 8.05747 52.6795 11.9942C52.6795 11.9942 28.4961 17.4364 17.8795 44.4868C17.8795 44.4868 12.1063 45.0103 8.88544 43.7057Z" fill="#0E0E0E"/>
<path d="M90.299 14.0338L90.2796 13.9623C89.8743 12.7143 88.325 11.2093 85.5429 9.36147C83.5773 8.05587 81.7455 7.08433 81.6685 7.04361C81.6556 7.0368 81.6424 7.03138 81.6293 7.02539C80.6464 6.38566 77.8381 5.05588 73.8777 3.91058C69.8347 2.74149 63.4385 1.44541 55.9237 1.9093C49.3591 2.31474 43.0163 3.98587 37.0712 6.87618C29.9241 10.3508 23.299 15.6222 17.38 22.544L16.7325 23.3001C12.9038 27.7696 10.3744 30.7224 7.8482 36.3138L7.7626 36.5032L8.03727 45.2558H18.8924C18.8936 45.2558 18.8948 45.256 18.896 45.256C18.897 45.256 18.8979 45.2558 18.8988 45.2558H19.3288L19.3244 45.1447C19.4875 45.0561 19.6256 44.9181 19.7097 44.7367C19.7826 44.5795 19.8546 44.3539 19.9739 43.9802C24.6017 29.4749 36.662 21.0894 45.9644 16.6092C62.8826 8.46093 77.8979 14.8426 84.3097 17.5676C86.4784 18.4892 87.2052 18.7389 87.842 18.4538C88.0111 18.378 88.1399 18.3231 88.2729 18.1967C90.3662 17.0937 90.5184 15.0224 90.299 14.0338ZM17.4639 43.4631H9.77468L9.63707 39.0783L17.6114 39.3226C17.4347 39.9448 17.3685 40.3085 17.361 40.3515L17.3447 40.4454L17.4639 43.4631ZM87.5616 16.8042C87.4746 16.8538 87.4322 16.8538 87.3133 16.8154C86.9718 16.751 85.9758 16.3277 85.0109 15.9176C81.7634 14.5375 76.3282 12.2276 69.38 11.2673C60.8955 10.0946 52.7558 11.3485 45.1865 14.994C36.2723 19.2873 29.229 24.9084 24.2524 31.7012C21.5794 35.3497 20.0437 38.6174 19.1565 40.8919L19.144 40.5761C19.2538 40.0589 19.9276 37.2322 22.2354 33.4229C24.5872 29.5407 29.1666 23.8138 37.6265 18.5766C38.0474 18.316 38.1774 17.7636 37.9169 17.3426C37.6564 16.9218 37.104 16.7917 36.6829 17.0523C27.8697 22.5082 23.0964 28.5131 20.644 32.59C19.4626 34.5541 18.6902 36.2654 18.1932 37.5782C18.1198 37.5562 18.0428 37.5423 17.9626 37.5398L9.58073 37.283L9.56756 36.8634C11.9608 31.626 14.4096 28.7675 18.094 24.4665L18.7424 23.7091C32.9122 7.13917 48.4437 3.6046 59.1086 3.6046C59.2357 3.6046 59.3623 3.60508 59.4881 3.6061C65.7754 3.65556 71.0298 4.8907 74.3305 5.91819C78.1662 7.11219 80.3558 8.0231 80.662 8.26742L81.481 8.67474C84.2373 10.1893 88.2755 12.8425 88.8371 14.4013C88.8854 14.6856 89.0234 16.0222 87.5616 16.8042Z" fill="#0E0E0E"/>
<path d="M85.9518 14.2059C77.3679 9.49974 69.0358 8.50251 63.5577 8.49468C63.5344 8.49463 63.512 8.49463 63.4888 8.49463C57.5797 8.49463 53.7276 9.58305 53.566 9.62954C53.0905 9.76634 52.8161 10.2624 52.9525 10.738C53.0889 11.2137 53.5855 11.4887 54.0609 11.3526C54.0985 11.3419 57.851 10.2874 63.4912 10.2874C63.5342 10.2874 63.5783 10.2874 63.6215 10.2876C68.8745 10.3027 76.8631 11.2675 85.0898 15.7779C85.2266 15.8529 85.3743 15.8884 85.52 15.8884C85.8367 15.8884 86.1437 15.7202 86.3068 15.4228C86.5448 14.9888 86.3858 14.4439 85.9518 14.2059Z" fill="#0E0E0E"/>
<path d="M49.1948 10.8261C45.5525 11.4883 40.9278 14.3922 40.7328 14.5155C40.3143 14.7799 40.1895 15.3334 40.4539 15.7519C40.6244 16.0218 40.9152 16.1696 41.2126 16.1696C41.3762 16.1696 41.5418 16.1248 41.6904 16.031C41.7352 16.0027 46.2178 13.1895 49.5155 12.5899C50.0026 12.5014 50.3257 12.0347 50.2371 11.5477C50.1485 11.0606 49.6817 10.7378 49.1948 10.8261Z" fill="#0E0E0E"/>
</svg>
