<svg width="20" height="20" viewBox="0 0 20 20" fill="none" xmlns="http://www.w3.org/2000/svg">
<path d="M8.33329 14.1667H13.3333V5.00001C13.3333 4.55798 13.1577 4.13406 12.8451 3.8215C12.5326 3.50894 12.1087 3.33334 11.6666 3.33334H3.33329C2.89127 3.33334 2.46734 3.50894 2.15478 3.8215C1.84222 4.13406 1.66663 4.55798 1.66663 5.00001V13.3333C1.66663 13.5544 1.75442 13.7663 1.9107 13.9226C2.06698 14.0789 2.27895 14.1667 2.49996 14.1667H3.33329" stroke="#0E0E0E" stroke-width="2" stroke-linecap="round" stroke-linejoin="round"/>
<path d="M18.3334 13.3333V9.99999C18.3334 9.11593 17.9822 8.26809 17.3571 7.64297C16.7319 7.01785 15.8841 6.66666 15 6.66666H13.3334V14.1667H17.5C17.7211 14.1667 17.933 14.0789 18.0893 13.9226C18.2456 13.7663 18.3334 13.5543 18.3334 13.3333Z" stroke="#0E0E0E" stroke-width="2" stroke-linecap="round" stroke-linejoin="round"/>
<path d="M12.5 14.1667C12.5 14.8297 12.7634 15.4656 13.2322 15.9344C13.7011 16.4033 14.337 16.6667 15 16.6667C15.663 16.6667 16.2989 16.4033 16.7678 15.9344C17.2366 15.4656 17.5 14.8297 17.5 14.1667H12.5Z" stroke="#0E0E0E" stroke-width="2" stroke-linecap="round" stroke-linejoin="round"/>
<path d="M18.3333 11.6667H16.6666" stroke="#0E0E0E" stroke-width="2" stroke-linecap="round" stroke-linejoin="round"/>
<path d="M5.83337 16.6667C7.21409 16.6667 8.33337 15.5474 8.33337 14.1667C8.33337 12.7859 7.21409 11.6667 5.83337 11.6667C4.45266 11.6667 3.33337 12.7859 3.33337 14.1667C3.33337 15.5474 4.45266 16.6667 5.83337 16.6667Z" stroke="#0E0E0E" stroke-width="2" stroke-linecap="round" stroke-linejoin="round"/>
</svg>
