<svg width="48" height="48" viewBox="0 0 48 48" fill="none" xmlns="http://www.w3.org/2000/svg">
<path d="M10 8C10 6.93913 10.4214 5.92172 11.1716 5.17157C11.9217 4.42143 12.9391 4 14 4H34C35.0609 4 36.0783 4.42143 36.8284 5.17157C37.5786 5.92172 38 6.93913 38 8V18C38 21.713 36.525 25.274 33.8995 27.8995C31.274 30.525 27.713 32 24 32V32C20.287 32 16.726 30.525 14.1005 27.8995C11.475 25.274 10 21.713 10 18V8Z" stroke="#0E0E0E" stroke-width="4" stroke-linecap="round" stroke-linejoin="round"/>
<path d="M18 44H30L24 34L18 44Z" stroke="#0E0E0E" stroke-width="4" stroke-linecap="round" stroke-linejoin="round"/>
<path d="M10 8H8C6.93913 8 5.92172 8.42143 5.17157 9.17157C4.42143 9.92172 4 10.9391 4 12V14.478C3.99997 15.932 4.39618 17.3584 5.14605 18.6041C5.89592 19.8498 6.97109 20.8675 8.256 21.548L11 23" stroke="#0E0E0E" stroke-width="4" stroke-linecap="round" stroke-linejoin="round"/>
<path d="M38 8H40C41.0609 8 42.0783 8.42143 42.8284 9.17157C43.5786 9.92172 44 10.9391 44 12V13.274C44.0001 15.0915 43.5049 16.8747 42.5676 18.4319C41.6302 19.9891 40.2862 21.2614 38.68 22.112L37 23" stroke="#0E0E0E" stroke-width="4" stroke-linecap="round" stroke-linejoin="round"/>
</svg>
