<svg width="20" height="20" viewBox="0 0 20 20" fill="none" xmlns="http://www.w3.org/2000/svg">
<path d="M7.49996 16.6667H4.99996C4.1159 16.6667 3.26806 16.3155 2.64294 15.6904C2.01782 15.0652 1.66663 14.2174 1.66663 13.3333V5.83333C1.66663 4.94928 2.01782 4.10143 2.64294 3.47631C3.26806 2.85119 4.1159 2.5 4.99996 2.5H14.1666C15.0507 2.5 15.8985 2.85119 16.5236 3.47631C17.1488 4.10143 17.5 4.94928 17.5 5.83333V8.33333" stroke="#0E0E0E" stroke-width="2" stroke-linecap="round" stroke-linejoin="round"/>
<path d="M6.66663 1.66666V3.33332" stroke="#0E0E0E" stroke-width="2" stroke-linecap="round" stroke-linejoin="round"/>
<path d="M12.5 1.66666V3.33332" stroke="#0E0E0E" stroke-width="2" stroke-linecap="round" stroke-linejoin="round"/>
<path d="M1.66663 6.66666H17.5" stroke="#0E0E0E" stroke-width="2" stroke-linecap="round" stroke-linejoin="round"/>
<path d="M15.4166 13.0358L14.1666 14.2858" stroke="#0E0E0E" stroke-width="2" stroke-linecap="round" stroke-linejoin="round"/>
<path d="M14.1667 18.3333C16.4679 18.3333 18.3333 16.4679 18.3333 14.1667C18.3333 11.8655 16.4679 10 14.1667 10C11.8655 10 10 11.8655 10 14.1667C10 16.4679 11.8655 18.3333 14.1667 18.3333Z" stroke="#0E0E0E" stroke-width="2" stroke-linecap="round" stroke-linejoin="round"/>
</svg>
