<svg width="20" height="20" viewBox="0 0 20 20" fill="none" xmlns="http://www.w3.org/2000/svg">
<path d="M11.6666 15.8333C14.8091 15.8333 16.3808 15.8333 17.3566 14.8567C18.3333 13.8808 18.3333 12.3092 18.3333 9.16667C18.3333 6.02417 18.3333 4.4525 17.3566 3.47667C16.3808 2.5 14.8091 2.5 11.6666 2.5H8.33329C5.19079 2.5 3.61913 2.5 2.64329 3.47667C1.66663 4.4525 1.66663 6.02417 1.66663 9.16667C1.66663 12.3092 1.66663 13.8808 2.64329 14.8567C3.18746 15.4017 3.91663 15.6425 4.99996 15.7483" stroke="#0E0E0E" stroke-width="2" stroke-linecap="round" stroke-linejoin="round"/>
<path d="M7.5 9.16667L9.375 10.8333L12.5 7.5" stroke="#0E0E0E" stroke-width="2" stroke-linecap="round" stroke-linejoin="round"/>
<path d="M11.6666 15.8333C10.6366 15.8333 9.50162 16.25 8.46579 16.7875C6.80079 17.6517 5.96829 18.0842 5.55829 17.8083C5.14829 17.5333 5.22579 16.6792 5.38162 14.9717L5.41662 14.5833" stroke="#0E0E0E" stroke-width="2" stroke-linecap="round" stroke-linejoin="round"/>
</svg>
