<svg id="Calque_1" data-name="Calque 1" xmlns="http://www.w3.org/2000/svg" viewBox="0 0 141.46 144.33"><path class="cls-1" d="M183.57,151.85" transform="translate(-6.02 -10.17)"/><path class="cls-2" d="M147.48,154.45h-7A56.13,56.13,0,0,0,84.41,98.39H69.08A56.13,56.13,0,0,0,13,154.45H6A63.13,63.13,0,0,1,69.08,91.39H84.41A63.14,63.14,0,0,1,147.48,154.45Z" transform="translate(-6.02 -10.17)"/><line class="cls-2" x1="4.08" y1="140.83" x2="138.54" y2="140.83"/><rect class="cls-2" x="4.08" y="137.33" width="134.46" height="7"/><path class="cls-2" d="M76.75,73.23A31.53,31.53,0,1,1,108.28,41.7,31.57,31.57,0,0,1,76.75,73.23Zm0-56.06A24.53,24.53,0,1,0,101.28,41.7,24.55,24.55,0,0,0,76.75,17.17Z" transform="translate(-6.02 -10.17)"/></svg>