<svg width="48" height="48" viewBox="0 0 48 48" fill="none" xmlns="http://www.w3.org/2000/svg">
<path d="M38 20H10C7.79086 20 6 21.7909 6 24V40C6 42.2091 7.79086 44 10 44H38C40.2091 44 42 42.2091 42 40V24C42 21.7909 40.2091 20 38 20Z" stroke="#0E0E0E" stroke-width="4" stroke-linecap="round" stroke-linejoin="round"/>
<path d="M12 12C12 10.4087 12.6321 8.88258 13.7574 7.75736C14.8826 6.63214 16.4087 6 18 6H30C31.5913 6 33.1174 6.63214 34.2426 7.75736C35.3679 8.88258 36 10.4087 36 12V20H12V12Z" stroke="#0E0E0E" stroke-width="4" stroke-linecap="round" stroke-linejoin="round"/>
</svg>
