<svg viewBox="0 0 282 20" fill="none" xmlns="http://www.w3.org/2000/svg">
<g clip-path="url(#clip0_5_10177)">
<path d="M23.8203 9.77076V15.6334H21.9604V1.15527H26.8932C27.482 1.14297 28.0674 1.2474 28.6156 1.46252C29.1638 1.67765 29.664 1.99921 30.0873 2.40866C30.5149 2.79325 30.8551 3.26491 31.0853 3.79194C31.3154 4.31897 31.4301 4.88915 31.4216 5.46417C31.4338 6.04227 31.3209 6.61618 31.0906 7.14656C30.8603 7.67694 30.518 8.15126 30.0873 8.53701C29.2247 9.35951 28.16 9.77038 26.8932 9.76961H23.8203V9.77076ZM23.8203 2.93775V7.99175H26.9394C27.2813 8.00189 27.6216 7.94054 27.9385 7.81164C28.2554 7.68275 28.5418 7.48913 28.7796 7.24318C29.0161 7.01322 29.2041 6.73817 29.3325 6.43429C29.4609 6.13041 29.5271 5.80388 29.5271 5.47399C29.5271 5.1441 29.4609 4.81756 29.3325 4.51369C29.2041 4.20981 29.0161 3.93476 28.7796 3.7048C28.5448 3.45367 28.2593 3.25531 27.9421 3.12287C27.6248 2.99043 27.283 2.92693 26.9394 2.93659H23.8203V2.93775Z" fill="#5F6368"/>
<path d="M35.7074 5.40405C37.082 5.40405 38.1672 5.77141 38.9627 6.50611C39.7583 7.24082 40.1557 8.24816 40.1549 9.52812V15.6334H38.3759V14.2587H38.295C37.5249 15.3908 36.5006 15.9568 35.2222 15.9568C34.1309 15.9568 33.2179 15.6334 32.4832 14.9864C32.1306 14.6895 31.8487 14.3177 31.658 13.898C31.4674 13.4783 31.3728 13.0214 31.3811 12.5605C31.3811 11.5355 31.7685 10.7203 32.5433 10.115C33.318 9.50964 34.3523 9.2062 35.6461 9.20466C36.7505 9.20466 37.66 9.40682 38.3747 9.81115V9.38603C38.3768 9.07184 38.309 8.76111 38.1761 8.47639C38.0432 8.19166 37.8487 7.94007 37.6065 7.73987C37.1147 7.29613 36.4737 7.05401 35.8113 7.06177C34.7724 7.06177 33.9503 7.49997 33.345 8.37639L31.7069 7.34479C32.6079 6.05097 33.9414 5.40405 35.7074 5.40405ZM33.3011 12.601C33.2998 12.8377 33.3552 13.0712 33.4625 13.2822C33.5698 13.4932 33.7259 13.6755 33.9179 13.8139C34.3293 14.1375 34.8398 14.3089 35.3631 14.2991C36.1479 14.2978 36.9003 13.9854 37.4552 13.4304C38.0713 12.8505 38.3793 12.1701 38.3793 11.3891C37.7994 10.9271 36.9908 10.696 35.9534 10.696C35.1979 10.696 34.5679 10.8782 34.0635 11.2424C33.5541 11.6121 33.3011 12.0615 33.3011 12.601Z" fill="#5F6368"/>
<path d="M50.3668 5.72754L44.1565 20.0001H42.2365L44.5411 15.0061L40.4575 5.72754H42.4791L45.4307 12.8436H45.4711L48.3418 5.72754H50.3668Z" fill="#5F6368"/>
<path d="M16.3044 8.50689C16.3051 7.94009 16.2572 7.37428 16.1612 6.81567H8.31738V10.019H12.81C12.718 10.5307 12.5235 11.0184 12.238 11.4528C11.9525 11.8872 11.582 12.2593 11.1488 12.5466V14.626H13.83C15.3999 13.1785 16.3044 11.0379 16.3044 8.50689Z" fill="#4285F4"/>
<path d="M8.31739 16.6348C10.5619 16.6348 12.4519 15.8977 13.83 14.627L11.1488 12.5477C10.4025 13.0536 9.4414 13.3424 8.31739 13.3424C6.14793 13.3424 4.30654 11.88 3.64807 9.90918H0.885986V12.0521C1.57826 13.4296 2.63979 14.5877 3.95205 15.3969C5.26432 16.2061 6.77568 16.6347 8.31739 16.6348Z" fill="#34A853"/>
<path d="M3.64799 9.9094C3.29988 8.8767 3.29988 7.75836 3.64799 6.72566V4.58276H0.885905C0.30354 5.74161 0.000244141 7.02058 0.000244141 8.31753C0.000244141 9.61447 0.30354 10.8934 0.885905 12.0523L3.64799 9.9094Z" fill="#FBBC04"/>
<path d="M8.31739 3.29238C9.50354 3.273 10.6497 3.72116 11.5081 4.54L13.882 2.16606C12.3767 0.752181 10.3825 -0.0240621 8.31739 5.74212e-05C6.77568 0.000127687 5.26432 0.4287 3.95205 1.23793C2.63979 2.04716 1.57826 3.20519 0.885986 4.58274L3.64807 6.72564C4.30654 4.75487 6.14793 3.29238 8.31739 3.29238Z" fill="#EA4335"/>
</g>
<g clip-path="url(#clip1_5_10177)">
<path d="M92.5365 2.13892H83.5237V17.8611H92.5365V2.13892Z" fill="#FF5F00"/>
<path d="M84.0958 10C84.0958 6.80555 85.6408 3.97222 88.0156 2.13889C86.2703 0.805559 84.0671 0 81.6637 0C75.9699 0 71.3633 4.47222 71.3633 10C71.3633 15.5278 75.9699 20 81.6637 20C84.0671 20 86.2703 19.1944 88.0156 17.8611C85.6408 16.0556 84.0958 13.1944 84.0958 10Z" fill="#EB001B"/>
<path d="M104.697 10C104.697 15.5278 100.09 20 94.3964 20C91.9929 20 89.7898 19.1944 88.0444 17.8611C90.4479 16.0278 91.9643 13.1944 91.9643 10C91.9643 6.80555 90.4193 3.97222 88.0444 2.13889C89.7898 0.805559 91.9929 0 94.3964 0C100.09 0 104.697 4.5 104.697 10Z" fill="#F79E1B"/>
</g>
<g clip-path="url(#clip2_5_10177)">
<path d="M131.952 0.000488281H139.924C141.037 0.000488281 141.729 0.907569 141.47 2.02413L137.758 17.9598C137.496 19.0725 136.382 19.9804 135.268 19.9804H127.297C126.185 19.9804 125.492 19.0725 125.751 17.9598L129.464 2.02413C129.724 0.907569 130.838 0.000488281 131.952 0.000488281Z" fill="#E21836"/>
<path d="M139.261 0H148.429C149.541 0 149.04 0.907081 148.778 2.02364L145.067 17.9593C144.806 19.072 144.888 19.9799 143.773 19.9799H134.605C133.49 19.9799 132.8 19.072 133.062 17.9593L136.773 2.02364C137.036 0.907081 138.147 0 139.261 0Z" fill="#00447C"/>
<path d="M148.065 0H156.037C157.152 0 157.844 0.907081 157.582 2.02364L153.871 17.9593C153.609 19.072 152.494 19.9799 151.38 19.9799H143.411C142.296 19.9799 141.605 19.072 141.866 17.9593L145.578 2.02364C145.837 0.907081 146.95 0 148.065 0Z" fill="#007B84"/>
<path d="M134.034 5.10699C133.214 5.11535 132.972 5.10699 132.894 5.08873C132.865 5.23 132.311 7.78199 132.31 7.78413C132.191 8.30043 132.104 8.66847 131.81 8.90612C131.643 9.04428 131.448 9.11094 131.221 9.11094C130.858 9.11094 130.646 8.93041 130.61 8.58802L130.604 8.47046C130.604 8.47046 130.714 7.77888 130.714 7.77499C130.714 7.77499 131.295 5.44938 131.399 5.14197C131.404 5.12448 131.406 5.11535 131.407 5.10699C130.277 5.1169 130.077 5.10699 130.063 5.08873C130.055 5.1138 130.027 5.25798 130.027 5.25798L129.435 7.87915L129.384 8.10145L129.285 8.82859C129.285 9.04428 129.328 9.22034 129.412 9.36919C129.682 9.84119 130.452 9.91192 130.888 9.91192C131.45 9.91192 131.977 9.79261 132.333 9.57478C132.951 9.20965 133.112 8.63894 133.256 8.13176L133.323 7.87157C133.323 7.87157 133.921 5.45619 134.023 5.14197C134.027 5.12448 134.028 5.11535 134.034 5.10699ZM136.069 7.05551C135.925 7.05551 135.661 7.09049 135.424 7.20649C135.339 7.2506 135.257 7.30152 135.172 7.35223L135.249 7.073L135.207 7.02597C134.705 7.1276 134.592 7.1412 134.129 7.20649L134.09 7.23234C134.036 7.67869 133.988 8.01428 133.789 8.89163C133.713 9.21497 133.634 9.54143 133.555 9.864L133.576 9.905C134.051 9.87993 134.195 9.87993 134.608 9.88673L134.642 9.8504C134.694 9.58165 134.701 9.51869 134.817 8.97441C134.872 8.71635 134.986 8.14933 135.042 7.94743C135.145 7.89963 135.247 7.8526 135.344 7.8526C135.575 7.8526 135.547 8.0545 135.538 8.13495C135.528 8.27 135.444 8.71111 135.358 9.08983L135.3 9.33429C135.26 9.51481 135.216 9.69028 135.175 9.86925L135.193 9.905C135.661 9.87993 135.804 9.87993 136.204 9.88673L136.251 9.8504C136.323 9.43067 136.344 9.31835 136.473 8.70722L136.537 8.42643C136.662 7.87689 136.725 7.59824 136.631 7.37128C136.53 7.11691 136.29 7.05551 136.069 7.05551ZM138.342 7.63087C138.093 7.67867 137.934 7.71054 137.777 7.73114C137.62 7.7562 137.468 7.77894 137.227 7.81236L137.208 7.82966L137.191 7.84345C137.166 8.02261 137.148 8.17749 137.115 8.35956C137.087 8.54786 137.043 8.7618 136.973 9.06922C136.918 9.30454 136.89 9.38654 136.859 9.46932C136.829 9.5521 136.795 9.63255 136.734 9.86398L136.748 9.88536L136.76 9.90498C136.985 9.89429 137.132 9.88672 137.283 9.88536C137.434 9.87991 137.591 9.88535 137.833 9.88672L137.854 9.86942L137.877 9.85038C137.912 9.64168 137.917 9.58552 137.938 9.4837C137.96 9.37449 137.996 9.22331 138.086 8.81952C138.128 8.62986 138.175 8.44079 138.219 8.24725C138.265 8.05448 138.313 7.86463 138.358 7.67498L138.351 7.65205L138.342 7.63087ZM138.347 6.85511C138.121 6.72161 137.724 6.76397 137.457 6.94838C137.191 7.1291 137.16 7.3856 137.386 7.52084C137.608 7.65065 138.007 7.61198 138.271 7.42602C138.537 7.24141 138.571 6.98724 138.347 6.85511ZM139.715 9.94682C140.173 9.94682 140.642 9.8207 140.995 9.44645C141.267 9.14292 141.391 8.69132 141.435 8.50536C141.575 7.88898 141.466 7.60119 141.328 7.42592C141.12 7.15873 140.751 7.07304 140.368 7.07304C140.138 7.07304 139.59 7.09577 139.162 7.49043C138.855 7.77511 138.712 8.16142 138.627 8.53179C138.54 8.90915 138.441 9.58849 139.066 9.8413C139.258 9.92408 139.536 9.94682 139.715 9.94682ZM139.68 8.55996C139.785 8.09321 139.91 7.70146 140.228 7.70146C140.477 7.70146 140.495 7.99294 140.384 8.46125C140.364 8.56521 140.273 8.95171 140.15 9.1163C140.064 9.23775 139.963 9.3114 139.85 9.3114C139.817 9.3114 139.618 9.3114 139.615 9.01623C139.614 8.87049 139.643 8.72164 139.68 8.55996ZM142.578 9.88679L142.614 9.85046C142.665 9.58171 142.673 9.51856 142.786 8.97447C142.842 8.71641 142.958 8.14939 143.013 7.94749C143.116 7.89949 143.216 7.85247 143.316 7.85247C143.546 7.85247 143.518 8.05437 143.509 8.13481C143.501 8.27006 143.416 8.71097 143.328 9.0897L143.274 9.33415C143.232 9.51487 143.186 9.69014 143.146 9.8693L143.164 9.90506C143.634 9.87999 143.771 9.87999 144.173 9.88679L144.222 9.85046C144.292 9.43053 144.311 9.31822 144.444 8.70728L144.506 8.42629C144.632 7.87676 144.696 7.5983 144.603 7.37133C144.5 7.11697 144.258 7.05557 144.04 7.05557C143.895 7.05557 143.63 7.09035 143.395 7.20655C143.311 7.25066 143.227 7.30138 143.144 7.35229L143.216 7.07306L143.177 7.02584C142.676 7.12766 142.561 7.14126 142.098 7.20655L142.062 7.2324C142.006 7.67875 141.961 8.01414 141.761 8.89169C141.685 9.21503 141.606 9.54149 141.527 9.86406L141.548 9.90506C142.024 9.87999 142.166 9.87999 142.578 9.88679ZM146.031 9.90496C146.06 9.76078 146.236 8.90616 146.237 8.90616C146.237 8.90616 146.387 8.2791 146.396 8.25636C146.396 8.25636 146.443 8.19107 146.49 8.16522H146.559C147.212 8.16522 147.949 8.16522 148.526 7.74025C148.92 7.44877 149.188 7.01835 149.308 6.49525C149.339 6.367 149.362 6.21446 149.362 6.06192C149.362 5.86157 149.322 5.66337 149.206 5.5085C148.911 5.09635 148.325 5.08877 147.647 5.08566C147.645 5.08566 147.314 5.08877 147.314 5.08877C146.447 5.09946 146.099 5.09635 145.956 5.07886C145.944 5.14201 145.921 5.25433 145.921 5.25433C145.921 5.25433 145.611 6.69345 145.611 6.69579C145.611 6.69579 144.868 9.75553 144.833 9.89971C145.59 9.89058 145.9 9.89058 146.031 9.90496ZM146.606 7.3485C146.606 7.3485 146.936 5.91229 146.935 5.91773L146.945 5.84409L146.95 5.78793L147.082 5.80153C147.082 5.80153 147.763 5.86002 147.779 5.86157C148.047 5.96553 148.158 6.2335 148.081 6.58327C148.01 6.90293 147.803 7.17167 147.537 7.30148C147.317 7.41146 147.048 7.42059 146.772 7.42059H146.592L146.606 7.3485ZM148.662 8.58657C148.574 8.95849 148.474 9.63783 149.096 9.87995C149.294 9.96429 149.472 9.98935 149.652 9.98022C149.843 9.96992 150.019 9.87432 150.183 9.73674C150.168 9.79329 150.153 9.84983 150.139 9.90657L150.167 9.94291C150.614 9.92406 150.753 9.92406 151.237 9.92776L151.281 9.89433C151.352 9.47849 151.418 9.0747 151.602 8.27915C151.692 7.89809 151.781 7.52073 151.873 7.14122L151.859 7.09944C151.359 7.19213 151.225 7.21195 150.744 7.28016L150.707 7.30989C150.702 7.34856 150.697 7.38568 150.693 7.42279C150.618 7.30192 150.509 7.19874 150.342 7.13442C150.128 7.05028 149.626 7.15871 149.194 7.55201C148.89 7.8328 148.744 8.21755 148.662 8.58657ZM149.712 8.6093C149.819 8.1509 149.942 7.76304 150.261 7.76304C150.462 7.76304 150.568 7.94901 150.547 8.26613C150.53 8.34522 150.511 8.42858 150.489 8.52283C150.457 8.65905 150.423 8.7941 150.389 8.92934C150.355 9.02184 150.315 9.10909 150.272 9.16719C150.19 9.28339 149.994 9.35549 149.882 9.35549C149.85 9.35549 149.654 9.35549 149.647 9.06556C149.645 8.92118 149.675 8.77253 149.712 8.6093ZM155.198 7.09573L155.159 7.05162C154.664 7.15189 154.575 7.16782 154.12 7.22923L154.086 7.26265C154.085 7.26809 154.084 7.27645 154.081 7.28403L154.08 7.27645C153.741 8.05742 153.751 7.88894 153.476 8.50377C153.474 8.47579 153.474 8.4583 153.472 8.42857L153.403 7.09573L153.36 7.05162C152.842 7.15189 152.829 7.16782 152.351 7.22923L152.313 7.26265C152.308 7.27859 152.308 7.29608 152.305 7.31512L152.308 7.32192C152.368 7.62778 152.354 7.55957 152.414 8.04226C152.442 8.27913 152.479 8.51737 152.507 8.75133C152.554 9.14288 152.581 9.33565 152.638 9.93318C152.315 10.4668 152.238 10.6687 151.927 11.137L151.929 11.1416L151.71 11.4883C151.685 11.5248 151.662 11.5499 151.63 11.5606C151.595 11.5779 151.55 11.581 151.487 11.581H151.365L151.185 12.1814L151.804 12.1921C152.168 12.1906 152.396 12.0206 152.519 11.792L152.909 11.1247H152.902L152.943 11.0777C153.205 10.5138 155.198 7.09573 155.198 7.09573ZM148.662 14.9817H148.399L149.371 11.7655H149.694L149.796 11.4342L149.806 11.8026C149.794 12.0304 149.973 12.2323 150.444 12.1988H150.988L151.175 11.5795H150.971C150.853 11.5795 150.798 11.5498 150.805 11.4861L150.795 11.1112H149.787V11.1132C149.461 11.12 148.488 11.1445 148.291 11.1969C148.053 11.2583 147.802 11.4391 147.802 11.4391L147.9 11.1073H146.957L146.761 11.7655L145.776 15.0308H145.584L145.397 15.6457H147.275L147.212 15.8507H148.137L148.199 15.6457H148.458L148.662 14.9817ZM147.891 12.419C147.74 12.4608 147.459 12.5875 147.459 12.5875L147.709 11.7655H148.458L148.277 12.3644C148.277 12.3644 148.046 12.378 147.891 12.419ZM147.905 13.5933C147.905 13.5933 147.67 13.6228 147.515 13.6578C147.363 13.704 147.077 13.8498 147.077 13.8498L147.335 12.9944H148.088L147.905 13.5933ZM147.486 14.9893H146.734L146.952 14.2674H147.701L147.486 14.9893ZM149.295 12.9944H150.378L150.223 13.4984H149.125L148.961 14.0495H149.921L149.194 15.0734C149.143 15.1486 149.097 15.1752 149.046 15.1964C148.996 15.2222 148.929 15.2526 148.851 15.2526H148.585L148.402 15.8561H149.099C149.461 15.8561 149.675 15.6913 149.833 15.4751L150.331 14.7926L150.439 15.4855C150.461 15.6154 150.555 15.6913 150.618 15.7209C150.687 15.7558 150.76 15.8159 150.861 15.8248C150.971 15.8295 151.049 15.8332 151.102 15.8332H151.444L151.65 15.1577H151.515C151.437 15.1577 151.304 15.1447 151.281 15.1204C151.258 15.0909 151.258 15.0454 151.246 14.9762L151.138 14.2817H150.693L150.888 14.0495H151.983L152.152 13.4984H151.138L151.295 12.9944H152.307L152.494 12.3728H149.48L149.295 12.9944ZM140.147 15.1296L140.4 14.2886H141.439L141.629 13.6631H140.589L140.748 13.1454H141.764L141.952 12.5397H139.409L139.225 13.1454H139.803L139.649 13.6631H139.069L138.877 14.2993H139.455L139.118 15.412C139.072 15.5593 139.139 15.6154 139.182 15.6838C139.225 15.7505 139.269 15.7946 139.368 15.8196C139.469 15.8424 139.539 15.856 139.634 15.856H140.805L141.014 15.163L140.495 15.2344C140.395 15.2344 140.117 15.2223 140.147 15.1296ZM140.266 11.1036L140.003 11.5794C139.947 11.6834 139.896 11.7479 139.85 11.7777C139.81 11.8027 139.73 11.8132 139.615 11.8132H139.478L139.294 12.422H139.75C139.97 12.422 140.138 12.3416 140.219 12.3013C140.305 12.2551 140.328 12.2815 140.395 12.217L140.549 12.0835H141.973L142.163 11.4496H141.12L141.302 11.1036H140.266ZM142.37 15.1418C142.345 15.1069 142.363 15.0453 142.4 14.917L142.789 13.6281H144.175C144.377 13.6252 144.522 13.6228 144.617 13.616C144.719 13.6054 144.83 13.569 144.95 13.5037C145.075 13.4353 145.139 13.3632 145.193 13.2805C145.253 13.1979 145.349 13.0172 145.432 12.7385L145.921 11.1074L144.484 11.1157C144.484 11.1157 144.041 11.181 143.846 11.2531C143.65 11.3336 143.369 11.5582 143.369 11.5582L143.498 11.1111H142.61L141.367 15.2343C141.323 15.3945 141.293 15.5107 141.287 15.5804C141.284 15.6556 141.381 15.73 141.444 15.7862C141.519 15.8424 141.629 15.8332 141.734 15.8424C141.845 15.8507 142.003 15.856 142.221 15.856H142.903L143.113 15.1486L142.502 15.2064C142.437 15.2064 142.389 15.1714 142.37 15.1418ZM143.041 12.7575H144.496L144.403 13.0475C144.39 13.0543 144.359 13.0331 144.211 13.0506H142.951L143.041 12.7575ZM143.332 11.7852H144.8L144.694 12.1344C144.694 12.1344 144.002 12.1276 143.892 12.148C143.404 12.2323 143.12 12.4927 143.12 12.4927L143.332 11.7852ZM144.436 14.0183C144.424 14.0617 144.405 14.0881 144.378 14.1079C144.349 14.127 144.301 14.1338 144.229 14.1338H144.022L144.034 13.7807H143.172L143.137 15.5068C143.136 15.6314 143.148 15.7035 143.239 15.7612C143.33 15.8333 143.611 15.8424 143.989 15.8424H144.529L144.724 15.1963L144.254 15.2221L144.097 15.2313C144.076 15.2221 144.056 15.2138 144.033 15.1911C144.013 15.1714 143.98 15.1835 143.985 15.0589L143.989 14.6165L144.482 14.5961C144.749 14.5961 144.862 14.5094 144.96 14.4268C145.052 14.3477 145.083 14.2568 145.118 14.1338L145.2 13.742H144.522L144.436 14.0183Z" fill="#FEFEFE"/>
</g>
<g clip-path="url(#clip3_5_10177)">
<path d="M205.475 19.7116H200.469L203.6 0.351074H208.606L205.475 19.7116Z" fill="#00579F"/>
<path d="M223.623 0.824255C222.635 0.432522 221.069 0 219.133 0C214.189 0 210.708 2.63619 210.686 6.40515C210.645 9.18588 213.179 10.7304 215.074 11.6575C217.011 12.605 217.669 13.2234 217.669 14.0679C217.649 15.3649 216.104 15.9628 214.663 15.9628C212.664 15.9628 211.593 15.6545 209.966 14.9329L209.306 14.6236L208.606 18.9696C209.78 19.5045 211.943 19.9792 214.189 20C219.442 20 222.861 17.4046 222.902 13.3882C222.922 11.1842 221.584 9.49549 218.7 8.11552C216.949 7.22968 215.877 6.63236 215.877 5.72598C215.897 4.902 216.784 4.05804 218.76 4.05804C220.388 4.0167 221.583 4.40789 222.489 4.79934L222.942 5.00493L223.623 0.824255Z" fill="#00579F"/>
<path d="M230.276 12.8529C230.688 11.7406 232.275 7.43594 232.275 7.43594C232.254 7.47727 232.686 6.30317 232.933 5.58239L233.283 7.25061C233.283 7.25061 234.231 11.8849 234.437 12.8529C233.655 12.8529 231.265 12.8529 230.276 12.8529ZM236.455 0.351074H232.583C231.389 0.351074 230.482 0.700924 229.967 1.95743L222.531 19.7113H227.784C227.784 19.7113 228.648 17.3218 228.834 16.8071C229.411 16.8071 234.52 16.8071 235.262 16.8071C235.405 17.4869 235.859 19.7113 235.859 19.7113H240.494L236.455 0.351074Z" fill="#00579F"/>
<path d="M196.288 0.351074L191.386 13.5531L190.85 10.8756C189.943 7.78606 187.101 4.42937 183.929 2.76033L188.419 19.6911H193.713L201.582 0.351074H196.288Z" fill="#00579F"/>
<path d="M186.833 0.351074H178.779L178.697 0.742259C184.979 2.34888 189.14 6.22159 190.85 10.8764L189.099 1.9785C188.811 0.741986 187.925 0.391863 186.833 0.351074Z" fill="#FAA61A"/>
</g>
<path d="M280.8 0.506592H262.003V19.371H280.8V13.1453C280.874 13.0373 280.911 12.8993 280.911 12.7305C280.911 12.5373 280.874 12.4176 280.8 12.3168" fill="url(#paint0_radial_5_10177)"/>
<path d="M263.698 8.66941L263.336 7.78828L262.977 8.66941H263.698ZM271.664 8.31855C271.591 8.36261 271.505 8.36408 271.402 8.36408H270.761V7.87314H271.411C271.503 7.87314 271.599 7.87728 271.662 7.91301C271.73 7.94521 271.773 8.01375 271.773 8.10841C271.773 8.20501 271.732 8.28275 271.664 8.31855ZM276.242 8.66941L275.877 7.78828L275.513 8.66941H276.242ZM267.708 9.62315H267.166L267.164 7.89208L266.398 9.62315H265.934L265.166 7.89054V9.62315H264.091L263.888 9.13015H262.788L262.583 9.62315H262.01L262.956 7.41288H263.741L264.639 9.50555V7.41288H265.501L266.193 8.91228L266.828 7.41288H267.708V9.62315H267.708ZM269.866 9.62315H268.101V7.41288H269.866V7.87314H268.63V8.27155H269.837V8.72461H268.63V9.16601H269.866V9.62315ZM272.355 8.00815C272.355 8.36055 272.119 8.54261 271.982 8.59728C272.098 8.64128 272.197 8.71901 272.244 8.78341C272.318 8.89335 272.331 8.99155 272.331 9.18895V9.62315H271.798L271.796 9.34442C271.796 9.21142 271.809 9.02015 271.713 8.91381C271.636 8.83608 271.518 8.81921 271.328 8.81921H270.761V9.62315H270.232V7.41288H271.448C271.718 7.41288 271.916 7.42001 272.087 7.51874C272.254 7.61748 272.355 7.76161 272.355 8.00815ZM273.2 9.62315H272.661V7.41288H273.2V9.62315ZM279.454 9.62315H278.705L277.704 7.96421V9.62315H276.628L276.422 9.13015H275.325L275.125 9.62315H274.507C274.25 9.62315 273.925 9.56635 273.741 9.37868C273.555 9.19101 273.459 8.93681 273.459 8.53488C273.459 8.20708 273.517 7.90741 273.744 7.67061C273.914 7.49421 274.182 7.41288 274.546 7.41288H275.057V7.88648H274.557C274.364 7.88648 274.255 7.91514 274.15 8.01741C274.06 8.11048 273.998 8.28641 273.998 8.51808C273.998 8.75488 274.045 8.92561 274.144 9.03715C274.225 9.12461 274.373 9.15115 274.512 9.15115H274.749L275.494 7.41294H276.285L277.18 9.50355V7.41294H277.984L278.913 8.95228V7.41294H279.454V9.62315ZM262.003 10.0573H262.906L263.11 9.56635H263.565L263.768 10.0573H265.544V9.68195L265.703 10.0589H266.625L266.783 9.67635V10.0573H271.197L271.195 9.25142H271.281C271.34 9.25348 271.358 9.25902 271.358 9.35775V10.0573H273.641V9.86968C273.825 9.96835 274.111 10.0573 274.488 10.0573H275.449L275.654 9.56635H276.11L276.311 10.0573H278.162V9.59095L278.442 10.0573H279.925V6.97461H278.457V7.33868L278.252 6.97461H276.746V7.33868L276.557 6.97461H274.522C274.182 6.97461 273.883 7.02214 273.641 7.15461V6.97461H272.237V7.15461C272.083 7.01808 271.873 6.97461 271.64 6.97461H266.511L266.167 7.77081L265.814 6.97461H264.198V7.33868L264.021 6.97461H262.643L262.003 8.44028V10.0573H262.003Z" fill="white"/>
<path d="M280.8 11.6879H279.837C279.741 11.6879 279.677 11.6915 279.623 11.7278C279.567 11.7636 279.546 11.8167 279.546 11.8869C279.546 11.9703 279.593 12.027 279.661 12.0515C279.717 12.0709 279.777 12.0766 279.865 12.0766L280.151 12.0843C280.44 12.0914 280.633 12.1411 280.751 12.2622C280.772 12.2791 280.785 12.298 280.8 12.3169V11.6879ZM280.8 13.1454C280.671 13.3331 280.421 13.4282 280.083 13.4282H279.063V12.9541H280.079C280.179 12.9541 280.25 12.9409 280.292 12.8994C280.329 12.8652 280.355 12.8155 280.355 12.7552C280.355 12.6908 280.329 12.6397 280.29 12.609C280.252 12.5753 280.196 12.5599 280.104 12.5599C279.608 12.5431 278.989 12.5753 278.989 11.8757C278.989 11.555 279.193 11.2175 279.747 11.2175H280.8V10.7776H279.822C279.527 10.7776 279.313 10.8483 279.161 10.9581V10.7776H277.715C277.483 10.7776 277.212 10.8349 277.083 10.9581V10.7776H274.501V10.9581C274.295 10.8099 273.949 10.7776 273.788 10.7776H272.085V10.9581C271.922 10.8007 271.561 10.7776 271.34 10.7776H269.434L268.998 11.2497L268.589 10.7776H265.741V13.8624H268.535L268.985 13.3828L269.408 13.8624L271.131 13.8639V13.1383H271.3C271.529 13.1418 271.798 13.1326 272.036 13.0298V13.8623H273.457V13.0583H273.525C273.613 13.0583 273.621 13.0619 273.621 13.1493V13.8623H277.937C278.211 13.8623 278.497 13.7921 278.656 13.6649V13.8623H280.025C280.31 13.8623 280.588 13.8223 280.8 13.7201V13.1454ZM278.692 12.2622C278.795 12.3687 278.85 12.5031 278.85 12.7306C278.85 13.2062 278.553 13.4282 278.02 13.4282H276.991V12.9541H278.016C278.116 12.9541 278.188 12.9409 278.232 12.8994C278.268 12.8652 278.294 12.8155 278.294 12.7552C278.294 12.6908 278.266 12.6397 278.23 12.609C278.19 12.5753 278.134 12.5599 278.042 12.5599C277.548 12.5431 276.929 12.5753 276.929 11.8757C276.929 11.555 277.131 11.2175 277.684 11.2175H278.744V11.688H277.774C277.678 11.688 277.616 11.6916 277.563 11.7279C277.505 11.7637 277.483 11.8169 277.483 11.887C277.483 11.9704 277.533 12.0271 277.599 12.0517C277.655 12.0711 277.715 12.0767 277.805 12.0767L278.089 12.0844C278.376 12.0914 278.573 12.141 278.692 12.2622ZM273.925 12.1257C273.854 12.1676 273.767 12.1712 273.664 12.1712H273.022V11.6747H273.673C273.767 11.6747 273.861 11.6767 273.925 11.7146C273.994 11.7504 274.035 11.8189 274.035 11.9135C274.035 12.0081 273.994 12.0843 273.925 12.1257ZM274.244 12.4008C274.362 12.4442 274.458 12.522 274.503 12.5864C274.578 12.6943 274.588 12.7951 274.591 12.9899V13.4282H274.06V13.1516C274.06 13.0186 274.073 12.8217 273.975 12.7189C273.898 12.6397 273.78 12.6207 273.587 12.6207H273.023V13.4282H272.492V11.2174H273.711C273.979 11.2174 274.174 11.2292 274.347 11.3217C274.514 11.4225 274.619 11.5605 274.619 11.8127C274.619 12.1655 274.383 12.3456 274.244 12.4008ZM274.912 11.2174H276.675V11.6746H275.438V12.0765H276.645V12.5276H275.438V12.9675L276.675 12.9695V13.4282H274.912V11.2174ZM271.347 12.2377H270.664V11.6747H271.353C271.544 11.6747 271.676 11.7524 271.676 11.9457C271.676 12.1369 271.55 12.2377 271.347 12.2377ZM270.138 13.2271L269.327 12.3266L270.138 11.4547V13.2271ZM268.043 12.9675H266.745V12.5276H267.904V12.0765H266.745V11.6746H268.069L268.647 12.3189L268.043 12.9675ZM272.244 11.9457C272.244 12.5599 271.785 12.6867 271.324 12.6867H270.664V13.4282H269.638L268.987 12.6963L268.311 13.4282H266.218V11.2174H268.343L268.993 11.9421L269.665 11.2174H271.353C271.773 11.2174 272.244 11.3335 272.244 11.9457Z" fill="white"/>
<defs>
<radialGradient id="paint0_radial_5_10177" cx="0" cy="0" r="1" gradientUnits="userSpaceOnUse" gradientTransform="translate(265.32 3.80146) scale(17.6386)">
<stop stop-color="#9DD5F6"/>
<stop offset="0.0711" stop-color="#98D3F5"/>
<stop offset="0.1575" stop-color="#89CEF3"/>
<stop offset="0.2516" stop-color="#70C6EF"/>
<stop offset="0.3514" stop-color="#4EBBEA"/>
<stop offset="0.4546" stop-color="#23ADE3"/>
<stop offset="0.5" stop-color="#0DA6E0"/>
<stop offset="1" stop-color="#2E77BC"/>
</radialGradient>
<clipPath id="clip0_5_10177">
<rect width="50.3633" height="20" fill="white"/>
</clipPath>
<clipPath id="clip1_5_10177">
<rect width="33.3333" height="20" fill="white" transform="translate(71.3633)"/>
</clipPath>
<clipPath id="clip2_5_10177">
<rect width="32" height="20" fill="white" transform="translate(125.697)"/>
</clipPath>
<clipPath id="clip3_5_10177">
<rect width="61.7974" height="20" fill="white" transform="translate(178.697)"/>
</clipPath>
</defs>
</svg>
